<svg id="visual" viewBox="0 0 600 900" width="600" height="900" xmlns="http://www.w3.org/2000/svg" xmlns:xlink="http://www.w3.org/1999/xlink" version="1.1"><g stroke-width="1" stroke-linejoin="bevel"><path d="M297.3 427L313.3 398.7L255.7 370.7Z" fill="#006c6e" stroke="#006c6e"></path><path d="M255.7 370.7L254.7 424L297.3 427Z" fill="#1cbfa2" stroke="#1cbfa2"></path><path d="M313.3 398.7L269.7 343.4L255.7 370.7Z" fill="#00a393" stroke="#00a393"></path><path d="M313.3 398.7L327.3 333.4L269.7 343.4Z" fill="#005e63" stroke="#005e63"></path><path d="M269.7 343.4L224 337.4L255.7 370.7Z" fill="#007978" stroke="#007978"></path><path d="M255.7 370.7L197 424.7L254.7 424Z" fill="#015257" stroke="#015257"></path><path d="M261.7 288.1L224 337.4L269.7 343.4Z" fill="#00958b" stroke="#00958b"></path><path d="M224 337.4L197 424.7L255.7 370.7Z" fill="#04454c" stroke="#04454c"></path><path d="M254.7 547.3L359.3 479.3L297.3 427Z" fill="#04454c" stroke="#04454c"></path><path d="M327.3 333.4L261.7 288.1L269.7 343.4Z" fill="#063940" stroke="#063940"></path><path d="M432 413L382 350.7L313.3 398.7Z" fill="#007978" stroke="#007978"></path><path d="M313.3 398.7L382 350.7L327.3 333.4Z" fill="#008782" stroke="#008782"></path><path d="M327.3 333.4L326.3 288.1L261.7 288.1Z" fill="#015257" stroke="#015257"></path><path d="M228 511.3L297.3 427L254.7 424Z" fill="#005e63" stroke="#005e63"></path><path d="M297.3 427L359.3 479.3L313.3 398.7Z" fill="#007978" stroke="#007978"></path><path d="M135.3 404.7L166 436L197 424.7Z" fill="#1cbfa2" stroke="#1cbfa2"></path><path d="M197 424.7L228 511.3L254.7 424Z" fill="#005e63" stroke="#005e63"></path><path d="M394 311.4L326.3 288.1L327.3 333.4Z" fill="#015257" stroke="#015257"></path><path d="M166 436L228 511.3L197 424.7Z" fill="#1cbfa2" stroke="#1cbfa2"></path><path d="M135.3 404.7L152.3 451L166 436Z" fill="#0ab19b" stroke="#0ab19b"></path><path d="M166 436L152.3 451L228 511.3Z" fill="#00a393" stroke="#00a393"></path><path d="M224 337.4L135.3 404.7L197 424.7Z" fill="#00a393" stroke="#00a393"></path><path d="M131.3 342.4L135.3 404.7L224 337.4Z" fill="#006c6e" stroke="#006c6e"></path><path d="M458.7 292.1L394 311.4L490.7 359.4Z" fill="#00a393" stroke="#00a393"></path><path d="M382 350.7L394 311.4L327.3 333.4Z" fill="#063940" stroke="#063940"></path><path d="M191 617.6L248.7 543.6L228 511.3Z" fill="#04454c" stroke="#04454c"></path><path d="M228 511.3L254.7 547.3L297.3 427Z" fill="#00a393" stroke="#00a393"></path><path d="M248.7 543.6L254.7 547.3L228 511.3Z" fill="#063940" stroke="#063940"></path><path d="M359.3 479.3L432 413L313.3 398.7Z" fill="#006c6e" stroke="#006c6e"></path><path d="M394 311.4L395 296.1L326.3 288.1Z" fill="#00958b" stroke="#00958b"></path><path d="M458.7 292.1L395 296.1L394 311.4Z" fill="#00958b" stroke="#00958b"></path><path d="M323.3 563.6L400 496.3L359.3 479.3Z" fill="#006c6e" stroke="#006c6e"></path><path d="M359.3 479.3L437.7 423.7L432 413Z" fill="#006c6e" stroke="#006c6e"></path><path d="M153.3 267.1L131.3 342.4L224 337.4Z" fill="#006c6e" stroke="#006c6e"></path><path d="M400 496.3L437.7 423.7L359.3 479.3Z" fill="#005e63" stroke="#005e63"></path><path d="M490.7 359.4L394 311.4L382 350.7Z" fill="#00a393" stroke="#00a393"></path><path d="M360.3 197.9L303.7 227.9L326.3 288.1Z" fill="#008782" stroke="#008782"></path><path d="M326.3 288.1L303.7 227.9L261.7 288.1Z" fill="#00958b" stroke="#00958b"></path><path d="M261.7 288.1L153.3 267.1L224 337.4Z" fill="#04454c" stroke="#04454c"></path><path d="M254.7 547.3L323.3 563.6L359.3 479.3Z" fill="#04454c" stroke="#04454c"></path><path d="M220 222.1L153.3 267.1L261.7 288.1Z" fill="#005e63" stroke="#005e63"></path><path d="M303.7 227.9L220 222.1L261.7 288.1Z" fill="#00958b" stroke="#00958b"></path><path d="M220 222.1L166.3 228.9L153.3 267.1Z" fill="#005e63" stroke="#005e63"></path><path d="M44.7 292.4L73.7 389.7L131.3 342.4Z" fill="#005e63" stroke="#005e63"></path><path d="M131.3 342.4L73.7 389.7L135.3 404.7Z" fill="#007978" stroke="#007978"></path><path d="M135.3 404.7L84.7 466L152.3 451Z" fill="#00958b" stroke="#00958b"></path><path d="M152.3 451L123.3 543.6L228 511.3Z" fill="#00a393" stroke="#00a393"></path><path d="M44.7 292.4L131.3 342.4L153.3 267.1Z" fill="#006c6e" stroke="#006c6e"></path><path d="M73.7 389.7L84.7 466L135.3 404.7Z" fill="#006c6e" stroke="#006c6e"></path><path d="M248.7 543.6L191 617.6L254.7 547.3Z" fill="#005e63" stroke="#005e63"></path><path d="M490.7 359.4L382 350.7L432 413Z" fill="#015257" stroke="#015257"></path><path d="M395 296.1L360.3 197.9L326.3 288.1Z" fill="#006c6e" stroke="#006c6e"></path><path d="M417 565.6L468.7 488.3L400 496.3Z" fill="#005e63" stroke="#005e63"></path><path d="M400 496.3L468.7 488.3L437.7 423.7Z" fill="#063940" stroke="#063940"></path><path d="M497.3 391.7L490.7 359.4L432 413Z" fill="#015257" stroke="#015257"></path><path d="M84.7 466L123.3 543.6L152.3 451Z" fill="#0ab19b" stroke="#0ab19b"></path><path d="M254.7 547.3L260.7 678.9L323.3 563.6Z" fill="#04454c" stroke="#04454c"></path><path d="M497.3 391.7L432 413L437.7 423.7Z" fill="#007978" stroke="#007978"></path><path d="M431.7 205.9L360.3 197.9L395 296.1Z" fill="#005e63" stroke="#005e63"></path><path d="M243.7 123.6L200 181.9L220 222.1Z" fill="#04454c" stroke="#04454c"></path><path d="M220 222.1L200 181.9L166.3 228.9Z" fill="#063940" stroke="#063940"></path><path d="M323.3 563.6L417 565.6L400 496.3Z" fill="#008782" stroke="#008782"></path><path d="M484.7 480L497.3 391.7L437.7 423.7Z" fill="#015257" stroke="#015257"></path><path d="M514.3 490.3L484.7 480L468.7 488.3Z" fill="#015257" stroke="#015257"></path><path d="M468.7 488.3L484.7 480L437.7 423.7Z" fill="#015257" stroke="#015257"></path><path d="M243.7 123.6L220 222.1L303.7 227.9Z" fill="#005e63" stroke="#005e63"></path><path d="M123.3 543.6L191 617.6L228 511.3Z" fill="#006c6e" stroke="#006c6e"></path><path d="M323.3 563.6L338.3 680.9L417 565.6Z" fill="#00a393" stroke="#00a393"></path><path d="M84.7 466L96.3 551.3L123.3 543.6Z" fill="#006c6e" stroke="#006c6e"></path><path d="M114.3 620.9L187 625.9L191 617.6Z" fill="#04454c" stroke="#04454c"></path><path d="M91.7 559.6L96.3 551.3L59.7 529.3Z" fill="#1cbfa2" stroke="#1cbfa2"></path><path d="M458.7 292.1L431.7 205.9L395 296.1Z" fill="#005e63" stroke="#005e63"></path><path d="M541.3 226.9L431.7 205.9L458.7 292.1Z" fill="#015257" stroke="#015257"></path><path d="M114.3 620.9L191 617.6L123.3 543.6Z" fill="#1cbfa2" stroke="#1cbfa2"></path><path d="M191 617.6L260.7 678.9L254.7 547.3Z" fill="#007978" stroke="#007978"></path><path d="M59.7 529.3L96.3 551.3L84.7 466Z" fill="#04454c" stroke="#04454c"></path><path d="M96.3 551.3L91.7 559.6L123.3 543.6Z" fill="#008782" stroke="#008782"></path><path d="M485.7 565.6L514.3 490.3L468.7 488.3Z" fill="#04454c" stroke="#04454c"></path><path d="M484.7 480L558.3 446L497.3 391.7Z" fill="#1cbfa2" stroke="#1cbfa2"></path><path d="M0 488L59.7 529.3L84.7 466Z" fill="#04454c" stroke="#04454c"></path><path d="M34.7 231.1L153.3 267.1L166.3 228.9Z" fill="#007978" stroke="#007978"></path><path d="M34.7 231.1L44.7 292.4L153.3 267.1Z" fill="#063940" stroke="#063940"></path><path d="M73.7 389.7L0 396.7L84.7 466Z" fill="#1cbfa2" stroke="#1cbfa2"></path><path d="M497.3 391.7L530.3 321.4L490.7 359.4Z" fill="#00a393" stroke="#00a393"></path><path d="M490.7 359.4L530.3 321.4L458.7 292.1Z" fill="#005e63" stroke="#005e63"></path><path d="M600 376.7L530.3 321.4L497.3 391.7Z" fill="#063940" stroke="#063940"></path><path d="M355.3 92.3L304.3 133.6L360.3 197.9Z" fill="#1cbfa2" stroke="#1cbfa2"></path><path d="M360.3 197.9L304.3 133.6L303.7 227.9Z" fill="#006c6e" stroke="#006c6e"></path><path d="M417 565.6L485.7 565.6L468.7 488.3Z" fill="#04454c" stroke="#04454c"></path><path d="M467.7 638.9L485.7 565.6L417 565.6Z" fill="#008782" stroke="#008782"></path><path d="M444.7 147.6L432 175.9L514.3 153.6Z" fill="#008782" stroke="#008782"></path><path d="M431.7 205.9L432 175.9L360.3 197.9Z" fill="#007978" stroke="#007978"></path><path d="M304.3 133.6L243.7 123.6L303.7 227.9Z" fill="#04454c" stroke="#04454c"></path><path d="M0 256.1L0 300.4L44.7 292.4Z" fill="#008782" stroke="#008782"></path><path d="M91.7 617.9L114.3 620.9L91.7 559.6Z" fill="#007978" stroke="#007978"></path><path d="M91.7 559.6L114.3 620.9L123.3 543.6Z" fill="#04454c" stroke="#04454c"></path><path d="M44.7 292.4L0 396.7L73.7 389.7Z" fill="#0ab19b" stroke="#0ab19b"></path><path d="M110.3 687.1L230.7 675.1L187 625.9Z" fill="#0ab19b" stroke="#0ab19b"></path><path d="M187 625.9L230.7 675.1L191 617.6Z" fill="#00a393" stroke="#00a393"></path><path d="M230.7 675.1L260.7 678.9L191 617.6Z" fill="#063940" stroke="#063940"></path><path d="M600 487L558.3 446L514.3 490.3Z" fill="#007978" stroke="#007978"></path><path d="M514.3 490.3L558.3 446L484.7 480Z" fill="#1cbfa2" stroke="#1cbfa2"></path><path d="M0 584.6L91.7 617.9L91.7 559.6Z" fill="#008782" stroke="#008782"></path><path d="M114.3 620.9L110.3 687.1L187 625.9Z" fill="#04454c" stroke="#04454c"></path><path d="M0 584.6L91.7 559.6L59.7 529.3Z" fill="#005e63" stroke="#005e63"></path><path d="M260.7 678.9L338.3 680.9L323.3 563.6Z" fill="#063940" stroke="#063940"></path><path d="M0 396.7L0 488L84.7 466Z" fill="#007978" stroke="#007978"></path><path d="M44.7 292.4L0 300.4L0 396.7Z" fill="#006c6e" stroke="#006c6e"></path><path d="M34.7 231.1L166.3 228.9L31.7 196.9Z" fill="#00a393" stroke="#00a393"></path><path d="M31.7 196.9L166.3 228.9L44.7 165.6Z" fill="#015257" stroke="#015257"></path><path d="M600 324.4L552.3 284.1L530.3 321.4Z" fill="#00958b" stroke="#00958b"></path><path d="M530.3 321.4L552.3 284.1L458.7 292.1Z" fill="#005e63" stroke="#005e63"></path><path d="M305.7 69.3L205 109.6L243.7 123.6Z" fill="#015257" stroke="#015257"></path><path d="M243.7 123.6L205 109.6L200 181.9Z" fill="#00958b" stroke="#00958b"></path><path d="M338.3 680.9L432 651.9L417 565.6Z" fill="#0ab19b" stroke="#0ab19b"></path><path d="M514.3 153.6L432 175.9L431.7 205.9Z" fill="#00958b" stroke="#00958b"></path><path d="M432 175.9L425 133.6L360.3 197.9Z" fill="#00a393" stroke="#00a393"></path><path d="M304.3 133.6L305.7 69.3L243.7 123.6Z" fill="#04454c" stroke="#04454c"></path><path d="M444.7 147.6L425 133.6L432 175.9Z" fill="#008782" stroke="#008782"></path><path d="M518.3 636.9L534.3 563.6L485.7 565.6Z" fill="#04454c" stroke="#04454c"></path><path d="M485.7 565.6L534.3 563.6L514.3 490.3Z" fill="#1cbfa2" stroke="#1cbfa2"></path><path d="M432 651.9L467.7 638.9L417 565.6Z" fill="#04454c" stroke="#04454c"></path><path d="M34.7 231.1L0 256.1L44.7 292.4Z" fill="#00a393" stroke="#00a393"></path><path d="M260.7 678.9L318.3 707.1L338.3 680.9Z" fill="#006c6e" stroke="#006c6e"></path><path d="M338.3 680.9L369 708.1L432 651.9Z" fill="#008782" stroke="#008782"></path><path d="M501.7 694.1L518.3 636.9L467.7 638.9Z" fill="#008782" stroke="#008782"></path><path d="M309.3 747.4L318.3 707.1L260.7 678.9Z" fill="#00a393" stroke="#00a393"></path><path d="M552.3 284.1L541.3 226.9L458.7 292.1Z" fill="#008782" stroke="#008782"></path><path d="M425 133.6L355.3 92.3L360.3 197.9Z" fill="#063940" stroke="#063940"></path><path d="M0 488L0 550.3L59.7 529.3Z" fill="#04454c" stroke="#04454c"></path><path d="M105.3 128.6L166.3 228.9L200 181.9Z" fill="#1cbfa2" stroke="#1cbfa2"></path><path d="M34.7 231.1L31.7 196.9L0 256.1Z" fill="#008782" stroke="#008782"></path><path d="M205 109.6L105.3 128.6L200 181.9Z" fill="#1cbfa2" stroke="#1cbfa2"></path><path d="M600 487L600 376.7L558.3 446Z" fill="#00a393" stroke="#00a393"></path><path d="M558.3 446L600 376.7L497.3 391.7Z" fill="#00a393" stroke="#00a393"></path><path d="M552.3 284.1L600 251.1L541.3 226.9Z" fill="#00a393" stroke="#00a393"></path><path d="M318.3 707.1L369 708.1L338.3 680.9Z" fill="#04454c" stroke="#04454c"></path><path d="M105.3 128.6L44.7 165.6L166.3 228.9Z" fill="#006c6e" stroke="#006c6e"></path><path d="M31.7 196.9L0 173.9L0 256.1Z" fill="#007978" stroke="#007978"></path><path d="M355.3 92.3L305.7 69.3L304.3 133.6Z" fill="#007978" stroke="#007978"></path><path d="M205 109.6L177 50.3L105.3 128.6Z" fill="#008782" stroke="#008782"></path><path d="M600 376.7L600 324.4L530.3 321.4Z" fill="#00958b" stroke="#00958b"></path><path d="M600 527.3L600 487L514.3 490.3Z" fill="#00958b" stroke="#00958b"></path><path d="M91.7 617.9L110.3 687.1L114.3 620.9Z" fill="#006c6e" stroke="#006c6e"></path><path d="M230.7 675.1L218 740.4L260.7 678.9Z" fill="#0ab19b" stroke="#0ab19b"></path><path d="M38.7 669.1L110.3 687.1L91.7 617.9Z" fill="#008782" stroke="#008782"></path><path d="M0 550.3L0 584.6L59.7 529.3Z" fill="#0ab19b" stroke="#0ab19b"></path><path d="M501.7 694.1L467.7 638.9L432 651.9Z" fill="#015257" stroke="#015257"></path><path d="M467.7 638.9L518.3 636.9L485.7 565.6Z" fill="#00958b" stroke="#00958b"></path><path d="M534.3 563.6L600 527.3L514.3 490.3Z" fill="#015257" stroke="#015257"></path><path d="M429.7 29.3L407 38.3L425 133.6Z" fill="#0ab19b" stroke="#0ab19b"></path><path d="M425 133.6L407 38.3L355.3 92.3Z" fill="#008782" stroke="#008782"></path><path d="M355.3 92.3L407 38.3L305.7 69.3Z" fill="#006c6e" stroke="#006c6e"></path><path d="M541.3 226.9L514.3 153.6L431.7 205.9Z" fill="#063940" stroke="#063940"></path><path d="M600 231.9L514.3 153.6L541.3 226.9Z" fill="#063940" stroke="#063940"></path><path d="M600 541.6L600 527.3L534.3 563.6Z" fill="#008782" stroke="#008782"></path><path d="M211 742.1L218 740.4L230.7 675.1Z" fill="#015257" stroke="#015257"></path><path d="M318.3 707.1L309.3 747.4L369 708.1Z" fill="#063940" stroke="#063940"></path><path d="M110.3 687.1L211 742.1L230.7 675.1Z" fill="#04454c" stroke="#04454c"></path><path d="M218 740.4L309.3 747.4L260.7 678.9Z" fill="#00958b" stroke="#00958b"></path><path d="M292.7 796.4L309.3 747.4L218 740.4Z" fill="#007978" stroke="#007978"></path><path d="M369 708.1L501.7 694.1L432 651.9Z" fill="#007978" stroke="#007978"></path><path d="M600 673.9L600 541.6L534.3 563.6Z" fill="#00958b" stroke="#00958b"></path><path d="M600 324.4L600 251.1L552.3 284.1Z" fill="#0ab19b" stroke="#0ab19b"></path><path d="M0 99.6L0 173.9L44.7 165.6Z" fill="#063940" stroke="#063940"></path><path d="M44.7 165.6L0 173.9L31.7 196.9Z" fill="#006c6e" stroke="#006c6e"></path><path d="M218 0L177 50.3L205 109.6Z" fill="#063940" stroke="#063940"></path><path d="M105.3 128.6L39.7 102.3L44.7 165.6Z" fill="#005e63" stroke="#005e63"></path><path d="M600 251.1L600 231.9L541.3 226.9Z" fill="#063940" stroke="#063940"></path><path d="M0 584.6L38.7 669.1L91.7 617.9Z" fill="#008782" stroke="#008782"></path><path d="M123.3 804.4L212 820.7L211 742.1Z" fill="#063940" stroke="#063940"></path><path d="M516.3 741.1L501.7 694.1L456.7 799.4Z" fill="#0ab19b" stroke="#0ab19b"></path><path d="M518.3 636.9L600 673.9L534.3 563.6Z" fill="#006c6e" stroke="#006c6e"></path><path d="M0 584.6L0 652.9L38.7 669.1Z" fill="#063940" stroke="#063940"></path><path d="M123.3 804.4L211 742.1L110.3 687.1Z" fill="#0ab19b" stroke="#0ab19b"></path><path d="M98.3 30.3L39.7 102.3L105.3 128.6Z" fill="#005e63" stroke="#005e63"></path><path d="M429.7 29.3L444.7 147.6L514.3 153.6Z" fill="#04454c" stroke="#04454c"></path><path d="M429.7 29.3L425 133.6L444.7 147.6Z" fill="#00958b" stroke="#00958b"></path><path d="M305.7 69.3L218 0L205 109.6Z" fill="#063940" stroke="#063940"></path><path d="M0 652.9L0 670.1L38.7 669.1Z" fill="#007978" stroke="#007978"></path><path d="M303.3 0L287.7 0L305.7 69.3Z" fill="#005e63" stroke="#005e63"></path><path d="M177 50.3L98.3 30.3L105.3 128.6Z" fill="#005e63" stroke="#005e63"></path><path d="M466.7 0L429.7 29.3L541.3 29.3Z" fill="#04454c" stroke="#04454c"></path><path d="M394 0L303.3 0L305.7 69.3Z" fill="#00a393" stroke="#00a393"></path><path d="M394 0L305.7 69.3L407 38.3Z" fill="#00958b" stroke="#00958b"></path><path d="M212 820.7L292.7 796.4L218 740.4Z" fill="#04454c" stroke="#04454c"></path><path d="M309.3 747.4L361 806.4L369 708.1Z" fill="#005e63" stroke="#005e63"></path><path d="M212 820.7L218 740.4L211 742.1Z" fill="#007978" stroke="#007978"></path><path d="M287.7 0L218 0L305.7 69.3Z" fill="#063940" stroke="#063940"></path><path d="M0 95.3L0 99.6L39.7 102.3Z" fill="#1cbfa2" stroke="#1cbfa2"></path><path d="M39.7 102.3L0 99.6L44.7 165.6Z" fill="#04454c" stroke="#04454c"></path><path d="M129.3 0L98.3 30.3L177 50.3Z" fill="#00958b" stroke="#00958b"></path><path d="M0 0L0 95.3L39.7 102.3Z" fill="#005e63" stroke="#005e63"></path><path d="M429.7 29.3L394 0L407 38.3Z" fill="#015257" stroke="#015257"></path><path d="M292.7 796.4L361 806.4L309.3 747.4Z" fill="#006c6e" stroke="#006c6e"></path><path d="M456.7 799.4L501.7 694.1L369 708.1Z" fill="#04454c" stroke="#04454c"></path><path d="M501.7 694.1L600 673.9L518.3 636.9Z" fill="#006c6e" stroke="#006c6e"></path><path d="M516.3 741.1L600 673.9L501.7 694.1Z" fill="#00958b" stroke="#00958b"></path><path d="M218 0L129.3 0L177 50.3Z" fill="#015257" stroke="#015257"></path><path d="M98.3 30.3L65.7 0L39.7 102.3Z" fill="#00958b" stroke="#00958b"></path><path d="M123.3 804.4L110.3 687.1L80.7 787.4Z" fill="#00a393" stroke="#00a393"></path><path d="M292.7 796.4L330.3 822.7L361 806.4Z" fill="#008782" stroke="#008782"></path><path d="M266.7 849.7L330.3 822.7L292.7 796.4Z" fill="#063940" stroke="#063940"></path><path d="M361 806.4L456.7 799.4L369 708.1Z" fill="#006c6e" stroke="#006c6e"></path><path d="M80.7 787.4L110.3 687.1L38.7 669.1Z" fill="#00a393" stroke="#00a393"></path><path d="M0 742.4L80.7 787.4L38.7 669.1Z" fill="#04454c" stroke="#04454c"></path><path d="M411 851.7L456.7 799.4L361 806.4Z" fill="#008782" stroke="#008782"></path><path d="M516.3 741.1L600 734.4L600 673.9Z" fill="#007978" stroke="#007978"></path><path d="M541.3 29.3L429.7 29.3L514.3 153.6Z" fill="#005e63" stroke="#005e63"></path><path d="M429.7 29.3L466.7 0L394 0Z" fill="#008782" stroke="#008782"></path><path d="M80.7 787.4L116.3 807.7L123.3 804.4Z" fill="#00958b" stroke="#00958b"></path><path d="M128.3 900L226 900L212 820.7Z" fill="#00958b" stroke="#00958b"></path><path d="M600 231.9L600 95.6L514.3 153.6Z" fill="#00958b" stroke="#00958b"></path><path d="M0 670.1L0 742.4L38.7 669.1Z" fill="#00958b" stroke="#00958b"></path><path d="M80.7 787.4L51.7 842.7L116.3 807.7Z" fill="#00a393" stroke="#00a393"></path><path d="M129.3 0L65.7 0L98.3 30.3Z" fill="#008782" stroke="#008782"></path><path d="M212 820.7L266.7 849.7L292.7 796.4Z" fill="#04454c" stroke="#04454c"></path><path d="M330.3 822.7L411 851.7L361 806.4Z" fill="#00958b" stroke="#00958b"></path><path d="M249.7 900L266.7 849.7L226 900Z" fill="#007978" stroke="#007978"></path><path d="M600 95.6L541.3 29.3L514.3 153.6Z" fill="#063940" stroke="#063940"></path><path d="M600 0L520.3 0L541.3 29.3Z" fill="#0ab19b" stroke="#0ab19b"></path><path d="M541.3 29.3L520.3 0L466.7 0Z" fill="#1cbfa2" stroke="#1cbfa2"></path><path d="M600 742.1L600 734.4L516.3 741.1Z" fill="#0ab19b" stroke="#0ab19b"></path><path d="M521.3 828.7L533.3 788.4L456.7 799.4Z" fill="#008782" stroke="#008782"></path><path d="M456.7 799.4L533.3 788.4L516.3 741.1Z" fill="#015257" stroke="#015257"></path><path d="M533.3 788.4L600 742.1L516.3 741.1Z" fill="#006c6e" stroke="#006c6e"></path><path d="M344.3 900L411 851.7L330.3 822.7Z" fill="#007978" stroke="#007978"></path><path d="M600 95.6L600 38.3L541.3 29.3Z" fill="#007978" stroke="#007978"></path><path d="M65.7 0L0 0L39.7 102.3Z" fill="#063940" stroke="#063940"></path><path d="M455.7 871.7L521.3 828.7L456.7 799.4Z" fill="#007978" stroke="#007978"></path><path d="M533.3 788.4L600 823.7L600 742.1Z" fill="#04454c" stroke="#04454c"></path><path d="M0 742.4L51.7 842.7L80.7 787.4Z" fill="#008782" stroke="#008782"></path><path d="M226 900L266.7 849.7L212 820.7Z" fill="#015257" stroke="#015257"></path><path d="M266.7 849.7L344.3 900L330.3 822.7Z" fill="#00958b" stroke="#00958b"></path><path d="M411 851.7L455.7 871.7L456.7 799.4Z" fill="#006c6e" stroke="#006c6e"></path><path d="M212 820.7L123.3 804.4L128.3 900Z" fill="#005e63" stroke="#005e63"></path><path d="M128.3 900L123.3 804.4L116.3 807.7Z" fill="#04454c" stroke="#04454c"></path><path d="M445.7 900L455.7 871.7L411 851.7Z" fill="#1cbfa2" stroke="#1cbfa2"></path><path d="M249.7 900L344.3 900L266.7 849.7Z" fill="#007978" stroke="#007978"></path><path d="M600 38.3L600 0L541.3 29.3Z" fill="#063940" stroke="#063940"></path><path d="M344.3 900L404 900L411 851.7Z" fill="#1cbfa2" stroke="#1cbfa2"></path><path d="M81.7 900L128.3 900L116.3 807.7Z" fill="#015257" stroke="#015257"></path><path d="M404 900L445.7 900L411 851.7Z" fill="#006c6e" stroke="#006c6e"></path><path d="M455.7 871.7L548.3 900L521.3 828.7Z" fill="#1cbfa2" stroke="#1cbfa2"></path><path d="M0 742.4L0 852.7L51.7 842.7Z" fill="#008782" stroke="#008782"></path><path d="M51.7 842.7L81.7 900L116.3 807.7Z" fill="#005e63" stroke="#005e63"></path><path d="M548.3 900L600 823.7L521.3 828.7Z" fill="#015257" stroke="#015257"></path><path d="M521.3 828.7L600 823.7L533.3 788.4Z" fill="#006c6e" stroke="#006c6e"></path><path d="M0 900L81.7 900L51.7 842.7Z" fill="#008782" stroke="#008782"></path><path d="M445.7 900L548.3 900L455.7 871.7Z" fill="#04454c" stroke="#04454c"></path><path d="M0 852.7L0 900L51.7 842.7Z" fill="#007978" stroke="#007978"></path><path d="M548.3 900L600 900L600 823.7Z" fill="#063940" stroke="#063940"></path></g></svg>