<svg width="192" height="192" viewBox="0 0 192 192" fill="none" xmlns="http://www.w3.org/2000/svg">
<rect width="192" height="192" rx="28" fill="#007978"/>
<path d="M42.3925 94.2596C40.7462 94.5527 39.367 94.8429 37.9745 95.0387C31.8472 95.9007 27.0348 92.0797 26.1346 85.9762C24.8258 77.1141 31.5547 67.4099 37.9779 64.7439C40.1516 63.842 42.6929 63.8254 45.69 63.294C53.6776 44.9096 68.8605 35.9206 89.4778 34.6682C89.7811 31.2847 90.0809 27.9445 90.3967 24.4307C89.5062 24.0659 88.4381 23.9271 87.8629 23.3211C87.0252 22.4391 86.0595 21.2225 86.0562 20.1453C86.0528 19.2206 87.2061 17.6416 88.0517 17.4902C90.3922 17.0726 92.9455 16.7863 95.2159 17.3081C98.1151 17.9744 98.5316 20.2796 96.6846 22.649C96.3051 23.042 96.0597 23.545 95.9835 24.0859C96.1377 27.0966 96.4006 30.1011 96.6038 32.787C102.031 33.2712 107.219 33.5318 112.348 34.2289C129.126 36.509 140.236 45.9407 146.295 61.58C146.397 61.8412 146.517 62.0961 146.643 62.3471C146.704 62.4341 146.777 62.5129 146.859 62.5816C149.647 62.5816 152.512 62.2049 155.239 62.6595C161.087 63.6336 165.456 66.7913 166.909 72.8145C168.361 78.8377 166.049 83.8372 161.625 87.8096C157.276 91.7161 151.969 92.7909 146.222 92.0552C146.008 92.2328 145.823 92.4424 145.673 92.6765C139.248 107.791 127.331 116.655 112.213 121.635C99.0843 125.992 84.9462 126.288 71.6459 122.485C56.966 118.427 46.3535 109.951 42.3925 94.2596ZM90.1913 117.625C93.3033 117.36 96.4364 117.241 99.5234 116.807C111.906 115.067 122.863 110.338 131.268 100.79C146.02 84.0336 142.348 53.5368 116.618 45.078C107.09 41.9484 97.1449 40.0222 87.0338 40.6709C75.7156 41.3975 65.8446 45.7205 58.5433 54.6754C51.7718 62.9781 48.785 72.8333 48.5397 83.3911C48.1836 98.7152 55.6527 109.127 70.0907 114.211C76.5619 116.425 83.3489 117.578 90.1884 117.624L90.1913 117.625ZM43.0753 69.3707C42.8339 69.3378 42.5891 69.3409 42.3487 69.3798C36.7841 71.0181 31.314 80.5698 32.732 86.1093C33.1616 87.7892 34.2257 88.7873 35.9129 88.8203C37.7486 88.8567 39.59 88.6297 40.9335 88.5478C41.6783 81.8661 42.3725 75.6477 43.0736 69.3695L43.0753 69.3707ZM148.601 83.9659C151.671 83.9138 154.619 82.749 156.897 80.6877C159.991 77.8801 160.357 73.6242 157.693 71.1711C155.108 68.7903 152.009 68.1046 148.601 68.7977V83.9659Z" fill="white"/>
<path d="M94.9418 97.0472C93.5595 96.7922 92.0244 96.8241 90.8447 96.1937C90.3085 95.8991 89.8377 95.4985 89.4611 95.0164C89.0845 94.5342 88.8099 93.9805 88.654 93.3889C88.4161 91.7722 89.8182 90.942 91.358 90.7406C92.1033 90.641 92.8609 90.685 93.5897 90.8703C94.9045 91.2657 96.2983 91.3202 97.6399 91.0284C98.9815 90.7366 100.227 90.1083 101.259 89.2026C102.429 88.2414 103.801 87.5141 104.977 88.9384C106.018 90.1994 105.54 91.6636 104.501 92.7908C103.31 94.1497 101.839 95.234 100.189 95.9689C98.5384 96.7037 96.7482 97.0716 94.9418 97.0472Z" fill="white"/>
<path d="M75.7588 62.5526C78.9761 62.6636 80.9882 64.9597 80.8141 68.3209C80.6752 70.9988 78.5243 73.1577 76.1071 73.0467C73.3756 72.9209 71.2104 70.1902 71.3271 67.015C71.4461 63.7959 72.7822 62.4496 75.7588 62.5526Z" fill="white"/>
<path d="M106.846 66.7328C106.84 64.0481 107.87 62.8314 110.184 62.7905C113.173 62.7375 115.051 64.4407 114.983 67.1436C114.923 69.4715 113.093 71.4449 110.943 71.4973C108.487 71.557 106.852 69.6542 106.846 66.7328Z" fill="white"/>
<path d="M81.4637 143.58V149.907H72.8738V176H64.9766V149.907H56.3867V143.58H81.4637Z" fill="white"/>
<path d="M89.3988 147.552C88.0133 147.552 86.8742 147.152 85.9813 146.351C85.1192 145.52 84.6882 144.504 84.6882 143.303C84.6882 142.071 85.1192 141.055 85.9813 140.255C86.8742 139.424 88.0133 139.008 89.3988 139.008C90.7535 139.008 91.8619 139.424 92.7239 140.255C93.6168 141.055 94.0632 142.071 94.0632 143.303C94.0632 144.504 93.6168 145.52 92.7239 146.351C91.8619 147.152 90.7535 147.552 89.3988 147.552ZM93.3243 150.23V176H85.4271V150.23H93.3243Z" fill="white"/>
<path d="M103.019 147.552C101.634 147.552 100.494 147.152 99.6015 146.351C98.7394 145.52 98.3084 144.504 98.3084 143.303C98.3084 142.071 98.7394 141.055 99.6015 140.255C100.494 139.424 101.634 139.008 103.019 139.008C104.374 139.008 105.482 139.424 106.344 140.255C107.237 141.055 107.683 142.071 107.683 143.303C107.683 144.504 107.237 145.52 106.344 146.351C105.482 147.152 104.374 147.552 103.019 147.552ZM106.944 150.23V176H99.0473V150.23H106.944Z" fill="white"/>
<path d="M135.99 143.58V149.907H127.4V176H119.502V149.907H110.913V143.58H135.99Z" fill="white"/>
</svg>
