<svg width="11" height="11" viewBox="0 0 11 11" fill="none" xmlns="http://www.w3.org/2000/svg">
<path fill-rule="evenodd" clip-rule="evenodd" d="M4.7442 0.756913C4.58517 0.778294 4.53532 0.812812 4.5074 0.840727C4.5074 0.840728 4.5074 0.840725 4.5074 0.840727M4.5074 0.840727C4.47948 0.868644 4.44496 0.918501 4.42358 1.07753C4.40078 1.24711 4.4 1.47727 4.4 1.83333V2.56667C4.4 2.76917 4.23584 2.93333 4.03333 2.93333C3.83083 2.93333 3.66667 2.76917 3.66667 2.56667L3.66667 1.80919C3.66665 1.48415 3.66663 1.20409 3.69679 0.979811C3.7291 0.739452 3.80198 0.509059 3.98885 0.322182C4.17573 0.135311 4.40613 0.0624344 4.64648 0.0301197C4.87076 -3.30133e-05 5.15082 -1.7321e-05 5.47586 8.90378e-07H9.1908C9.51584 -1.7321e-05 9.79591 -3.30133e-05 10.0202 0.0301197C10.2605 0.0624344 10.4909 0.135307 10.6778 0.322177C10.8647 0.509054 10.9376 0.739452 10.9699 0.979811C11 1.20409 11 1.48415 11 1.80919V5.52414C11 5.84918 11 6.12924 10.9699 6.35352C10.9376 6.59387 10.8647 6.82427 10.6778 7.01114C10.4909 7.19802 10.2605 7.2709 10.0202 7.30321C9.79591 7.33337 9.51585 7.33335 9.19081 7.33333L8.43333 7.33333C8.23083 7.33333 8.06667 7.16917 8.06667 6.96667C8.06667 6.76416 8.23083 6.6 8.43333 6.6H9.16667C9.52272 6.6 9.75288 6.59922 9.92247 6.57642C10.0815 6.55504 10.1313 6.52052 10.1593 6.4926C10.1872 6.46468 10.2217 6.41483 10.2431 6.2558C10.2659 6.08622 10.2667 5.85606 10.2667 5.5V1.83333C10.2667 1.47727 10.2659 1.24711 10.2431 1.07753C10.2217 0.918493 10.1872 0.868643 10.1593 0.840727C10.1313 0.812812 10.0815 0.778294 9.92247 0.756913C9.75288 0.734114 9.52272 0.733335 9.16667 0.733335H5.5C5.14394 0.733335 4.91378 0.734114 4.7442 0.756913M1.80919 3.66667H5.52414C5.84918 3.66665 6.12924 3.66663 6.35352 3.69679C6.59387 3.7291 6.82427 3.80198 7.01114 3.98885C7.19802 4.17573 7.2709 4.40612 7.30321 4.64648C7.33337 4.87076 7.33335 5.15082 7.33333 5.47586V9.19081C7.33335 9.51585 7.33337 9.79591 7.30321 10.0202C7.2709 10.2605 7.19802 10.4909 7.01114 10.6778C6.82427 10.8647 6.59387 10.9376 6.35352 10.9699C6.12924 11 5.84918 11 5.52414 11H1.80919C1.48415 11 1.20409 11 0.979811 10.9699C0.739452 10.9376 0.509059 10.8647 0.322182 10.6778C0.135311 10.4909 0.0624344 10.2605 0.0301197 10.0202C-3.30133e-05 9.79591 -1.7321e-05 9.51584 8.90378e-07 9.1908V5.47586C-1.7321e-05 5.15082 -3.30133e-05 4.87076 0.0301197 4.64648C0.0624344 4.40613 0.135307 4.17574 0.322177 3.98886C0.509054 3.80198 0.739452 3.7291 0.979811 3.69679C1.20409 3.66663 1.48415 3.66665 1.80919 3.66667ZM0.840727 4.5074C0.840725 4.5074 0.840728 4.5074 0.840727 4.5074C0.868644 4.47948 0.918501 4.44496 1.07753 4.42358C1.24711 4.40078 1.47727 4.4 1.83333 4.4H5.5C5.85606 4.4 6.08622 4.40078 6.2558 4.42358C6.41483 4.44496 6.46468 4.47948 6.4926 4.5074C6.52052 4.53532 6.55504 4.58517 6.57642 4.7442C6.59922 4.91378 6.6 5.14394 6.6 5.5V9.16667C6.6 9.52272 6.59922 9.75288 6.57642 9.92247C6.55504 10.0815 6.52052 10.1313 6.4926 10.1593C6.46468 10.1872 6.41483 10.2217 6.2558 10.2431C6.08622 10.2659 5.85606 10.2667 5.5 10.2667H1.83333C1.47727 10.2667 1.24711 10.2659 1.07753 10.2431C0.918493 10.2217 0.868643 10.1872 0.840727 10.1593C0.812812 10.1313 0.778294 10.0815 0.756913 9.92247C0.734114 9.75288 0.733335 9.52272 0.733335 9.16667V5.5C0.733335 5.14394 0.734114 4.91378 0.756913 4.7442C0.778294 4.58517 0.812812 4.53532 0.840727 4.5074Z" fill="white"/>
</svg>
