<svg width="160" height="122" viewBox="0 0 160 122" fill="none" xmlns="http://www.w3.org/2000/svg">
<path d="M18.4913 86.9627C16.6377 87.2927 15.0846 87.6195 13.5168 87.8399C6.61754 88.8106 1.199 84.5082 0.185389 77.6359C-1.28826 67.6574 6.2882 56.7307 13.5206 53.7289C15.9681 52.7133 18.8295 52.6947 22.2042 52.0963C31.1979 31.396 48.2935 21.2747 71.508 19.8645C71.8495 16.0547 72.1871 12.2937 72.5427 8.33731C71.54 7.92661 70.3373 7.77031 69.6896 7.08795C68.7464 6.09483 67.6591 4.72495 67.6553 3.51208C67.6515 2.47091 68.9502 0.692994 69.9022 0.522564C72.5376 0.0522786 75.4125 -0.270045 77.969 0.317492C81.2334 1.06777 81.7023 3.6633 79.6226 6.33124C79.1953 6.77374 78.9191 7.34002 78.8333 7.94906C79.0069 11.3391 79.3029 14.722 79.5316 17.7463C85.6422 18.2915 91.4841 18.585 97.2589 19.3698C116.15 21.9371 128.66 32.557 135.483 50.1664C135.597 50.4605 135.733 50.7476 135.874 51.0302C135.944 51.1281 136.026 51.2168 136.117 51.2941C139.257 51.2941 142.482 50.87 145.553 51.3819C152.138 52.4787 157.058 56.0342 158.693 62.8161C160.328 69.5981 157.725 75.2274 152.744 79.7002C147.846 84.0988 141.871 85.309 135.401 84.4806C135.16 84.6806 134.951 84.9165 134.782 85.1802C127.548 102.199 114.129 112.18 97.1077 117.786C82.3246 122.692 66.4055 123.026 51.4298 118.744C34.9007 114.174 22.9513 104.631 18.4913 86.9627ZM72.3114 113.271C75.8155 112.973 79.3432 112.839 82.8191 112.351C96.7617 110.391 109.099 105.066 118.562 94.3157C135.172 75.4485 131.038 41.1099 102.067 31.5857C91.3388 28.0618 80.1409 25.893 68.7561 26.6234C56.0122 27.4415 44.8977 32.309 36.6767 42.392C29.0522 51.7406 25.6891 62.8373 25.4129 74.7251C25.0119 91.9796 33.4219 103.703 49.6787 109.427C56.9651 111.92 64.607 113.218 72.3082 113.27L72.3114 113.271ZM19.2601 58.9385C18.9883 58.9014 18.7127 58.905 18.442 58.9488C12.1764 60.7934 6.01718 71.5484 7.61384 77.7857C8.09758 79.6772 9.29574 80.8011 11.1955 80.8382C13.2624 80.8792 15.3358 80.6236 16.8485 80.5314C17.6872 73.008 18.4688 66.0062 19.2582 58.9372L19.2601 58.9385ZM138.079 75.3722C141.536 75.3137 144.855 74.0021 147.42 71.6811C150.904 68.5198 151.316 63.7279 148.317 60.9657C145.406 58.285 141.916 57.5129 138.079 58.2933V75.3722Z"/>
<path d="M77.6607 90.1014C76.1044 89.8143 74.3758 89.8502 73.0476 89.1403C72.4438 88.8086 71.9138 88.3576 71.4897 87.8147C71.0656 87.2718 70.7564 86.6484 70.5809 85.9822C70.313 84.1619 71.8917 83.2271 73.6255 83.0003C74.4648 82.8882 75.3178 82.9377 76.1384 83.1464C77.6188 83.5916 79.1882 83.6529 80.6988 83.3244C82.2093 82.9958 83.6115 82.2884 84.7733 81.2685C86.0913 80.1863 87.6354 79.3674 88.9597 80.9711C90.1322 82.391 89.5941 84.0396 88.4241 85.3088C87.0836 86.8388 85.4271 88.0598 83.5688 88.8872C81.7105 89.7146 79.6947 90.1288 77.6607 90.1014Z"/>
<path d="M56.0612 51.2614C59.6837 51.3864 61.9493 53.9717 61.7533 57.7563C61.5969 60.7716 59.175 63.2025 56.4533 63.0775C53.3778 62.9359 50.9398 59.8611 51.0712 56.2859C51.2052 52.6614 52.7096 51.1454 56.0612 51.2614Z"/>
<path d="M91.0642 55.9681C91.0578 52.9452 92.2175 51.5753 94.822 51.5292C98.1885 51.4695 100.303 53.3873 100.226 56.4307C100.158 59.0518 98.0977 61.2738 95.6768 61.3328C92.9114 61.4 91.0713 59.2575 91.0642 55.9681Z"/>
</svg>
