<svg width="113" height="99" viewBox="0 0 113 99" fill="none" xmlns="http://www.w3.org/2000/svg">
<path d="M9.8562 93.8132L12.1498 94.4154L15.5648 85.8546L12.1794 84.9658L9.8562 93.8132Z" fill="#A0616A"/>
<path d="M9.14697 96.1846L16.2005 98.0369L16.2239 97.9477C16.4151 97.2195 16.3092 96.4453 15.9296 95.7952C15.5499 95.1452 14.9276 94.6725 14.1995 94.4813L14.1994 94.4812L13.1677 93.1654L10.507 93.5117L9.89133 93.35L9.14697 96.1846Z" fill="#063940"/>
<path d="M21.6148 95.529L23.9863 95.5288L25.1145 86.3816L21.6143 86.3818L21.6148 95.529Z" fill="#A0616A"/>
<path d="M21.5311 98.0031L28.8238 98.0028V97.9106C28.8237 97.1578 28.5246 96.4358 27.9923 95.9035C27.46 95.3712 26.7381 95.0722 25.9853 95.0721H25.9851L24.653 94.0615L22.1676 95.0723L21.531 95.0723L21.5311 98.0031Z" fill="#063940"/>
<path d="M15.6833 51.7559C15.1105 52.472 15.3969 54.9067 15.3969 54.9067C15.3969 54.9067 14.3944 62.7836 14.824 63.4996C15.2537 64.2157 14.5376 64.7886 14.108 65.7911C13.6783 66.7936 13.2487 69.2283 13.2487 69.2283C10.814 71.2333 10.9572 80.3992 10.9572 80.3992L10.0979 88.5626C10.3843 89.4219 14.3944 89.5651 14.9673 89.4219C15.5401 89.2786 21.1256 69.0851 21.1256 69.0851C21.1256 69.0851 20.8391 88.5626 20.8391 89.4219C20.8391 90.2812 24.706 89.8515 25.5653 89.8515C26.4246 89.8515 31.8668 54.7634 31.8668 54.7634V52.7584L31.1507 51.7559C31.1507 51.7559 16.2562 51.0398 15.6833 51.7559Z" fill="#063940"/>
<path d="M21.9849 25.5473C24.4369 25.5473 26.4246 23.5595 26.4246 21.1076C26.4246 18.6556 24.4369 16.6678 21.9849 16.6678C19.5329 16.6678 17.5452 18.6556 17.5452 21.1076C17.5452 23.5595 19.5329 25.5473 21.9849 25.5473Z" fill="#A0616A"/>
<path d="M16.02 54.9232L15.9958 54.8893C14.7025 53.0786 16.6476 48.7277 16.941 48.097C16.5926 47.9839 16.2942 47.7536 16.0966 47.4453C15.899 47.1369 15.8144 46.7696 15.8571 46.4058L15.9836 45.3308L16.1154 44.2763L15.171 43.3319L15.1684 43.3084L14.6249 38.5529L13.8347 35.3944C13.5369 34.2003 13.5623 32.9486 13.9082 31.7676C14.2541 30.5866 14.908 29.5189 15.8029 28.6741L17.6295 28.3841L19.8493 26.2452H23.4291L24.6565 27.4179C27.0696 29.396 27.6425 28.5367 30.3636 32.2603L28.4153 37.3934L29.5043 44.9643L29.505 46.3344L30.0722 46.9647C30.2765 47.1918 30.425 47.4635 30.5057 47.7581C30.5865 48.0526 30.5974 48.362 30.5375 48.6615L30.4629 49.0345C30.7512 49.158 31.0056 49.3489 31.2049 49.5911C31.4042 49.8333 31.5425 50.1198 31.6083 50.4264L31.8075 51.356C31.9779 51.5809 33.1029 53.081 33.1029 53.491C33.1029 53.5526 33.0574 53.6121 32.9599 53.6781C32.1933 54.1973 27.9558 55.2556 26.0803 54.5052C24.0826 53.7064 16.1413 54.9047 16.0613 54.9169L16.02 54.9232Z" fill="#015257"/>
<path d="M13.7644 36.9136L17.4559 36.1909C18.8211 38.2297 19.5541 43.8046 19.5541 43.8046L23.6354 52.2689C23.8863 52.4213 24.0923 52.6374 24.2324 52.8953C24.3726 53.1532 24.4419 53.4437 24.4332 53.7371C24.4246 54.0305 24.3384 54.3164 24.1833 54.5656C24.0282 54.8148 23.8099 55.0185 23.5505 55.1559C23.2911 55.2933 23 55.3595 22.7067 55.3477C22.4134 55.336 22.1284 55.2467 21.8809 55.089C21.6333 54.9313 21.432 54.7108 21.2973 54.4499C21.1627 54.1891 21.0996 53.8973 21.1145 53.6041L15.7913 43.5755L13.7644 36.9136Z" fill="#A0616A"/>
<path d="M13.7439 37.7893L13.6389 32.3026L15.3761 29.9786C15.7188 29.5235 16.182 29.1734 16.7132 28.9678C17.2445 28.7622 17.8226 28.7093 18.3823 28.815C19.1401 28.9635 19.8133 29.3941 20.2657 30.0199C20.7181 30.6457 20.9161 31.4199 20.8195 32.186C20.5246 34.5093 19.8552 37.4167 18.3406 38.0745L18.3253 38.0812L19.895 43.5708L14.0739 44.3839L13.7439 37.7893Z" fill="#015257"/>
<path d="M35.6682 37.3046C35.6682 37.3046 31.2381 33.8418 28.8354 33.3444L26.7087 36.4471L32.4601 39.9718L43.6576 43.2094C43.8537 43.4272 44.1039 43.5892 44.3829 43.679C44.6618 43.7688 44.9596 43.7832 45.2459 43.7207C45.5322 43.6583 45.7969 43.5212 46.0131 43.3233C46.2292 43.1255 46.3892 42.874 46.4768 42.5943C46.5644 42.3147 46.5764 42.0168 46.5116 41.731C46.4468 41.4452 46.3076 41.1817 46.108 40.9671C45.9085 40.7525 45.6557 40.5945 45.3753 40.5092C45.095 40.4239 44.797 40.4143 44.5118 40.4814L35.6682 37.3046Z" fill="#A0616A"/>
<path d="M27.8742 38.0004L23.2574 35.034L22.2933 32.2973C22.106 31.7593 22.0729 31.1797 22.1978 30.6239C22.3226 30.0681 22.6004 29.5583 22.9998 29.1521C23.5448 28.6051 24.2773 28.2855 25.049 28.2579C25.8207 28.2303 26.5741 28.4968 27.1568 29.0034C28.9229 30.5414 31.1989 31.0569 30.9025 32.6813L31.7528 32.8054L36.1009 36.1077L33.5368 41.3965L27.8742 38.0004Z" fill="#015257"/>
<path d="M16.9489 18.1904C17.4474 17.4191 18.383 16.9051 19.2899 17.0495C19.3743 16.4707 19.6159 15.9262 19.9883 15.4752C20.3608 15.0242 20.8498 14.6841 21.4022 14.4918C21.9546 14.2995 22.5492 14.2624 23.1212 14.3847C23.6932 14.5069 24.2207 14.7837 24.6463 15.1849C24.7862 15.0864 24.9492 15.0257 25.1196 15.0086C25.2899 14.9916 25.4617 15.0188 25.6184 15.0876C25.9305 15.2296 26.2021 15.4475 26.4082 15.7216C26.9286 16.3706 27.2633 17.1485 27.3766 17.9726C27.49 18.7967 27.3778 19.6361 27.0519 20.4015C27.1627 19.9986 26.7589 19.6195 26.3509 19.5291C25.9429 19.4387 25.515 19.5242 25.1012 19.4653C24.5709 19.3899 24.0943 19.0823 23.5631 19.013C23.1128 18.9837 22.661 19.0418 22.2326 19.184C21.8044 19.3262 21.3532 19.3868 20.9026 19.3626C20.4556 19.3095 19.8798 21.0036 19.8875 22.1968C19.889 22.4229 19.8424 22.7132 19.6214 22.7612C19.3493 22.8203 19.1916 22.4447 18.9326 22.3423C18.8132 22.3081 18.6852 22.3216 18.5756 22.3799C18.4659 22.4382 18.3832 22.5368 18.3448 22.6549C18.3122 22.775 18.3087 22.9011 18.3346 23.0228C18.3606 23.1445 18.4152 23.2582 18.494 23.3545C18.6532 23.5454 18.8422 23.7094 19.0537 23.84L18.947 23.9288C18.7696 24.1632 18.4015 24.1733 18.1457 24.0283C17.9012 23.8627 17.7031 23.6371 17.5704 23.3732C17.0972 22.5862 16.6822 21.7477 16.5152 20.8446C16.3482 19.9416 16.4504 18.9616 16.9489 18.1904Z" fill="#063940"/>
<path d="M110.379 0H19.3623C18.8583 0.000748705 18.3752 0.201283 18.0188 0.557648C17.6625 0.914012 17.4619 1.39713 17.4612 1.90111V2.20769C17.4619 2.71167 17.6625 3.19479 18.0188 3.55116C18.3752 3.90752 18.8583 4.10806 19.3623 4.10881H110.379C110.883 4.10806 111.366 3.90752 111.722 3.55116C112.079 3.19479 112.279 2.71167 112.28 2.20769V1.90111C112.279 1.39713 112.079 0.914012 111.722 0.557648C111.366 0.201283 110.883 0.000748704 110.379 0Z" fill="#F0F0F0"/>
<path d="M30.3463 2.81302H21.6825C21.4885 2.81302 21.3024 2.73594 21.1652 2.59874C21.028 2.46154 20.9509 2.27545 20.9509 2.08142C20.9509 1.88739 21.028 1.7013 21.1652 1.5641C21.3024 1.4269 21.4885 1.34982 21.6825 1.34982H30.3463C31.2897 1.33665 31.2992 2.82631 30.3463 2.81302Z" fill="white"/>
<path d="M56.2635 2.81302H47.5998C47.4057 2.81302 47.2196 2.73594 47.0824 2.59874C46.9452 2.46154 46.8682 2.27545 46.8682 2.08142C46.8682 1.88739 46.9452 1.7013 47.0824 1.5641C47.2196 1.4269 47.4057 1.34982 47.5998 1.34982H56.2635C57.207 1.33665 57.2164 2.82631 56.2635 2.81302Z" fill="white"/>
<path d="M82.1805 2.81302H73.5168C73.3227 2.81302 73.1366 2.73594 72.9994 2.59874C72.8622 2.46154 72.7852 2.27545 72.7852 2.08142C72.7852 1.88739 72.8622 1.7013 72.9994 1.5641C73.1366 1.4269 73.3227 1.34982 73.5168 1.34982H82.1805C83.124 1.33665 83.1334 2.82631 82.1805 2.81302Z" fill="white"/>
<path d="M106.754 2.892H98.0907C97.8967 2.892 97.7106 2.81492 97.5734 2.67772C97.4362 2.54052 97.3591 2.35443 97.3591 2.1604C97.3591 1.96637 97.4362 1.78028 97.5734 1.64308C97.7106 1.50588 97.8967 1.4288 98.0907 1.4288H106.754C107.698 1.41563 107.707 2.90529 106.754 2.892Z" fill="#007978"/>
<path d="M93.2372 0H92.9211V4.10882H93.2372V0Z" fill="white"/>
<path d="M47.4792 39.9916C47.4663 39.9916 47.4534 39.9913 47.4404 39.9908C47.2882 39.9853 47.1396 39.9431 47.0072 39.8678C46.8749 39.7925 46.7627 39.6864 46.6801 39.5584C46.062 38.6345 45.3034 37.8128 44.4318 37.1229C43.9041 36.7012 43.3527 36.3091 42.8196 35.9298C41.444 34.9517 40.1485 34.0305 39.4294 32.7576C37.8615 29.9821 39.7079 26.1162 42.3457 24.3824C45.3043 22.4379 49.1959 22.1329 52.9605 22.093C53.3518 22.0888 53.7433 22.0868 54.135 22.0868C60.9181 22.0894 67.6869 22.7083 74.358 23.9359C76.5763 24.3452 78.8983 24.8466 80.7643 26.0633C82.6191 27.2728 83.7466 29.1775 83.6366 30.9159C83.476 33.4536 80.7858 35.3499 78.3361 35.8456C76.0012 36.3178 73.5756 35.9987 71.0077 35.6608C70.4408 35.5863 69.8546 35.5091 69.275 35.4421C62.9754 34.714 51.1411 36.9583 50.6405 37.0542L50.1437 37.1493L48.2164 39.6295C48.1298 39.7425 48.0181 39.834 47.8903 39.8968C47.7624 39.9596 47.6217 39.9921 47.4792 39.9916Z" fill="#007978"/>
<path d="M75.5321 27.6114H48.9057C48.7521 27.6114 48.6047 27.5504 48.4961 27.4417C48.3875 27.3331 48.3264 27.1857 48.3264 27.0321C48.3264 26.8784 48.3875 26.7311 48.4961 26.6224C48.6047 26.5138 48.7521 26.4528 48.9057 26.4528H75.5321C75.6857 26.4528 75.8331 26.5138 75.9417 26.6224C76.0503 26.7311 76.1114 26.8784 76.1114 27.0321C76.1114 27.1857 76.0503 27.3331 75.9417 27.4417C75.8331 27.5504 75.6857 27.6114 75.5321 27.6114Z" fill="white"/>
<path d="M75.5322 31.1674H48.9059C48.8298 31.1675 48.7544 31.1526 48.6841 31.1236C48.6138 31.0945 48.5499 31.0519 48.496 30.9982C48.4422 30.9445 48.3995 30.8806 48.3703 30.8104C48.3411 30.7401 48.326 30.6648 48.3259 30.5887C48.3258 30.5126 48.3408 30.4373 48.3698 30.367C48.3988 30.2967 48.4414 30.2327 48.4952 30.1789C48.5489 30.125 48.6127 30.0823 48.683 30.0531C48.7533 30.0239 48.8286 30.0089 48.9047 30.0088H75.5322C75.6858 30.0088 75.8332 30.0698 75.9418 30.1785C76.0505 30.2871 76.1115 30.4345 76.1115 30.5881C76.1115 30.7418 76.0505 30.8891 75.9418 30.9978C75.8332 31.1064 75.6858 31.1674 75.5322 31.1674Z" fill="white"/>
<path d="M52.0086 34.7234H48.9057C48.7521 34.7234 48.6047 34.6623 48.4961 34.5537C48.3875 34.445 48.3264 34.2977 48.3264 34.144C48.3264 33.9904 48.3875 33.843 48.4961 33.7344C48.6047 33.6257 48.7521 33.5647 48.9057 33.5647H52.0086C52.1623 33.5647 52.3096 33.6257 52.4183 33.7344C52.5269 33.843 52.588 33.9904 52.588 34.144C52.588 34.2977 52.5269 34.445 52.4183 34.5537C52.3096 34.6623 52.1623 34.7234 52.0086 34.7234Z" fill="white"/>
<path d="M95.0278 58.5088L93.4926 56.5333L93.097 56.4576C92.6982 56.3812 83.2717 54.5935 78.2538 55.1735C77.7921 55.2268 77.3252 55.2883 76.8737 55.3477C74.8282 55.6168 72.8961 55.871 71.0362 55.4949C69.085 55.1 66.9421 53.5896 66.8142 51.5681C66.7266 50.1834 67.6247 48.6663 69.1021 47.7028C70.5884 46.7337 72.438 46.3343 74.2049 46.0083C79.5188 45.0305 84.9104 44.5375 90.3135 44.5354C90.6255 44.5354 90.9373 44.537 91.249 44.5403C94.2477 44.5721 97.3475 44.8151 99.7041 46.364C101.805 47.745 103.276 50.8243 102.027 53.0352C101.454 54.049 100.422 54.7828 99.3267 55.5619C98.902 55.864 98.4627 56.1764 98.0424 56.5123C97.3482 57.0618 96.7439 57.7164 96.2516 58.4523C96.1858 58.5542 96.0964 58.6387 95.991 58.6987C95.8856 58.7587 95.7672 58.7923 95.646 58.7967C95.6356 58.7971 95.6253 58.7973 95.615 58.7973C95.5015 58.7977 95.3895 58.7718 95.2876 58.7218C95.1858 58.6718 95.0969 58.5989 95.0278 58.5088Z" fill="#F2F2F2"/>
<path d="M73.2696 48.936H94.4786C94.6008 48.9357 94.718 48.887 94.8043 48.8005C94.8907 48.714 94.9392 48.5968 94.9392 48.4745C94.9392 48.3523 94.8907 48.2351 94.8043 48.1485C94.718 48.062 94.6008 48.0133 94.4786 48.0131H73.2696C73.1474 48.0133 73.0303 48.062 72.9439 48.1485C72.8576 48.2351 72.8091 48.3523 72.8091 48.4745C72.8091 48.5968 72.8576 48.714 72.9439 48.8005C73.0303 48.887 73.1474 48.9357 73.2696 48.936Z" fill="white"/>
<path d="M73.2696 51.7685H94.4786C94.5393 51.7687 94.5994 51.7569 94.6555 51.7338C94.7116 51.7107 94.7626 51.6768 94.8055 51.634C94.8485 51.5911 94.8826 51.5403 94.9059 51.4843C94.9292 51.4282 94.9412 51.3682 94.9413 51.3075C94.9414 51.2469 94.9295 51.1868 94.9063 51.1307C94.8831 51.0747 94.8491 51.0237 94.8062 50.9808C94.7633 50.9379 94.7124 50.9039 94.6564 50.8807C94.6003 50.8575 94.5402 50.8455 94.4796 50.8456H73.2696C73.1474 50.8458 73.0303 50.8945 72.9439 50.9811C72.8576 51.0676 72.8091 51.1848 72.8091 51.307C72.8091 51.4293 72.8576 51.5465 72.9439 51.633C73.0303 51.7195 73.1474 51.7683 73.2696 51.7685Z" fill="white"/>
<path d="M92.0071 54.6009H94.4787C94.6011 54.6009 94.7185 54.5523 94.805 54.4657C94.8915 54.3792 94.9402 54.2618 94.9402 54.1394C94.9402 54.0171 94.8915 53.8997 94.805 53.8131C94.7185 53.7266 94.6011 53.678 94.4787 53.678H92.0071C91.8847 53.678 91.7674 53.7266 91.6808 53.8131C91.5943 53.8997 91.5457 54.0171 91.5457 54.1394C91.5457 54.2618 91.5943 54.3792 91.6808 54.4657C91.7674 54.5523 91.8847 54.6009 92.0071 54.6009Z" fill="white"/>
<path d="M47.808 44.0304C49.3632 44.0304 50.624 42.7696 50.624 41.2144C50.624 39.6591 49.3632 38.3983 47.808 38.3983C46.2527 38.3983 44.9919 39.6591 44.9919 41.2144C44.9919 42.7696 46.2527 44.0304 47.808 44.0304Z" fill="white"/>
<path d="M47.8082 44.0648C47.2444 44.0648 46.6933 43.8977 46.2246 43.5845C45.7558 43.2713 45.3905 42.8261 45.1747 42.3052C44.959 41.7844 44.9026 41.2113 45.0125 40.6583C45.1225 40.1054 45.394 39.5975 45.7926 39.1989C46.1913 38.8003 46.6992 38.5288 47.2521 38.4188C47.805 38.3088 48.3781 38.3652 48.899 38.581C49.4198 38.7967 49.865 39.1621 50.1782 39.6308C50.4914 40.0996 50.6586 40.6507 50.6586 41.2144C50.6578 41.9701 50.3572 42.6946 49.8228 43.229C49.2884 43.7634 48.5639 44.064 47.8082 44.0648Z" fill="#015257"/>
<path d="M47.5973 42.3398C47.5913 42.3398 47.5853 42.3396 47.5793 42.3393C47.5263 42.3367 47.4744 42.3227 47.4273 42.2983C47.3802 42.2738 47.3389 42.2394 47.3063 42.1975L46.8357 41.5924C46.806 41.5543 46.7841 41.5106 46.7713 41.4639C46.7584 41.4173 46.7549 41.3685 46.7609 41.3205C46.7669 41.2725 46.7823 41.2261 46.8062 41.1841C46.8301 41.142 46.8621 41.1051 46.9003 41.0754L46.9172 41.0622C46.9554 41.0325 46.9991 41.0105 47.0458 40.9977C47.0924 40.9848 47.1412 40.9813 47.1892 40.9873C47.2372 40.9933 47.2836 41.0087 47.3257 41.0327C47.3678 41.0566 47.4047 41.0886 47.4344 41.1268C47.4582 41.1573 47.4883 41.1824 47.5226 41.2002C47.5569 41.218 47.5947 41.2282 47.6333 41.2301C47.672 41.232 47.7106 41.2255 47.7465 41.2111C47.7824 41.1967 47.8147 41.1747 47.8414 41.1466L48.7969 40.1379C48.8642 40.067 48.9568 40.0257 49.0544 40.0231C49.1521 40.0204 49.2468 40.0566 49.3178 40.1237L49.3335 40.1386C49.3686 40.1719 49.3969 40.2118 49.4166 40.256C49.4363 40.3002 49.4471 40.3478 49.4484 40.3962C49.4497 40.4445 49.4415 40.4927 49.4242 40.5379C49.4069 40.5831 49.3808 40.6244 49.3475 40.6595L47.8647 42.2247C47.8303 42.2611 47.7888 42.29 47.7429 42.3098C47.6969 42.3296 47.6474 42.3398 47.5973 42.3398Z" fill="white"/>
<path d="M95.7858 62.7058C97.341 62.7058 98.6018 61.445 98.6018 59.8898C98.6018 58.3345 97.341 57.0737 95.7858 57.0737C94.2305 57.0737 92.9697 58.3345 92.9697 59.8898C92.9697 61.445 94.2305 62.7058 95.7858 62.7058Z" fill="white"/>
<path d="M95.7857 62.7403C95.222 62.7403 94.6709 62.5731 94.2021 62.2599C93.7334 61.9467 93.368 61.5015 93.1523 60.9807C92.9365 60.4598 92.8801 59.8867 92.9901 59.3338C93.1001 58.7808 93.3715 58.2729 93.7702 57.8743C94.1688 57.4757 94.6767 57.2042 95.2296 57.0942C95.7825 56.9842 96.3557 57.0407 96.8765 57.2564C97.3974 57.4721 97.8425 57.8375 98.1557 58.3062C98.469 58.775 98.6361 59.3261 98.6361 59.8898C98.6353 60.6455 98.3347 61.3701 97.8003 61.9044C97.266 62.4388 96.5414 62.7394 95.7857 62.7403Z" fill="#E6E6E6"/>
<path d="M95.5749 61.0153C95.5689 61.0153 95.5629 61.0151 95.5569 61.0148C95.5038 61.0123 95.452 60.9983 95.4048 60.9738C95.3577 60.9493 95.3165 60.9149 95.2839 60.873L94.8133 60.268C94.7835 60.2298 94.7616 60.1861 94.7488 60.1395C94.736 60.0928 94.7324 60.0441 94.7384 59.9961C94.7444 59.948 94.7598 59.9017 94.7837 59.8596C94.8077 59.8175 94.8396 59.7806 94.8778 59.7509L94.8948 59.7377C94.933 59.708 94.9766 59.6861 95.0233 59.6732C95.07 59.6604 95.1187 59.6569 95.1667 59.6629C95.2148 59.6689 95.2612 59.6843 95.3032 59.7082C95.3453 59.7321 95.3822 59.7641 95.4119 59.8023C95.4357 59.8329 95.4658 59.8579 95.5001 59.8757C95.5345 59.8935 95.5722 59.9037 95.6109 59.9056C95.6495 59.9075 95.6881 59.901 95.724 59.8866C95.7599 59.8722 95.7923 59.8502 95.8189 59.8222L96.7744 58.8134C96.8417 58.7426 96.9343 58.7013 97.032 58.6986C97.1296 58.696 97.2243 58.7321 97.2954 58.7992L97.311 58.8142C97.3462 58.8474 97.3744 58.8873 97.3941 58.9315C97.4138 58.9757 97.4247 59.0233 97.426 59.0717C97.4273 59.1201 97.419 59.1682 97.4017 59.2134C97.3844 59.2586 97.3584 59.2999 97.3251 59.335L95.8422 60.9002C95.8078 60.9366 95.7664 60.9655 95.7204 60.9853C95.6744 61.0051 95.6249 61.0153 95.5749 61.0153Z" fill="white"/>
<path d="M43.7388 95.2378L42.3867 93.0649L42.1166 94.3066C42.0692 94.5241 42.0219 94.745 41.978 94.9643C41.594 94.6363 41.1853 94.3329 40.7855 94.0418C39.5578 93.1508 38.3308 92.2587 37.1042 91.3655L37.4883 93.5928C37.7251 94.9643 37.9724 96.3638 38.5581 97.6177C38.6231 97.7598 38.6932 97.9001 38.7686 98.0369H44.4755C44.5214 97.9098 44.5531 97.7781 44.5702 97.644C44.5716 97.6354 44.5722 97.6265 44.5719 97.6177C44.6614 96.7671 44.1913 95.9657 43.7388 95.2378Z" fill="#F0F0F0"/>
<path d="M48.569 98.2504L0.20822 98.3043C0.152942 98.3041 0.0999811 98.2821 0.0609502 98.2429C0.0219193 98.2038 0 98.1508 0 98.0955C0 98.0402 0.0219193 97.9872 0.0609502 97.948C0.0999811 97.9089 0.152942 97.8868 0.20822 97.8867L48.569 97.8328C48.5965 97.8327 48.6237 97.838 48.6491 97.8485C48.6745 97.8589 48.6976 97.8743 48.717 97.8937C48.7365 97.9131 48.7519 97.9362 48.7625 97.9615C48.773 97.9869 48.7784 98.0141 48.7784 98.0416C48.7784 98.0691 48.773 98.0963 48.7625 98.1216C48.7519 98.147 48.7365 98.1701 48.717 98.1895C48.6976 98.2089 48.6745 98.2242 48.6491 98.2347C48.6237 98.2451 48.5965 98.2505 48.569 98.2504Z" fill="#CACACA"/>
</svg>
