<svg width="113" height="106" viewBox="0 0 113 106" fill="none" xmlns="http://www.w3.org/2000/svg">
<path d="M49.2007 76.9267C70.4434 76.9267 87.6641 59.7061 87.6641 38.4634C87.6641 17.2206 70.4434 0 49.2007 0C27.9579 0 10.7373 17.2206 10.7373 38.4634C10.7373 59.7061 27.9579 76.9267 49.2007 76.9267Z" fill="#F2F2F2"/>
<path d="M4.06592 99.4981C4.47374 99.9798 4.99875 100.348 5.59037 100.568C6.18199 100.788 6.82028 100.852 7.44374 100.754C9.04377 100.482 10.2493 99.1966 11.3279 97.984L14.5179 94.3972L12.14 94.5705C10.43 94.6951 8.67673 94.8305 7.12087 95.551C5.56502 96.2715 4.22442 97.7143 4.13138 99.4264" fill="#E6E6E6"/>
<path d="M1.3281 104.5C1.88884 103.15 2.45415 101.782 3.31447 100.59C4.07853 99.5319 5.06249 98.6375 6.28517 98.1479C6.93363 97.8889 7.62228 97.7451 8.32018 97.7227C8.50227 97.7168 8.50111 97.9991 8.31982 98.005C7.11124 98.0454 5.94668 98.4685 4.99406 99.2133C3.93761 100.043 3.18018 101.179 2.58148 102.368C2.21944 103.087 1.90952 103.83 1.60085 104.573C1.59006 104.608 1.56621 104.638 1.53413 104.657C1.50204 104.675 1.46412 104.681 1.42801 104.673C1.39196 104.663 1.36125 104.639 1.34255 104.607C1.32384 104.575 1.31866 104.536 1.3281 104.5Z" fill="#F2F2F2"/>
<path d="M52.4896 53.7631C55.8271 51.9288 59.9807 52.2969 63.5766 53.551C67.1724 54.8051 70.431 56.8597 73.9229 58.3794C84.5936 63.0232 97.4546 62.2744 107.514 56.4236C108.466 58.6367 107.445 61.168 106.324 63.3001C105.203 65.4322 103.925 67.743 104.387 70.1073C104.977 73.1327 108.149 74.9466 109.434 77.7484C110.654 80.4081 110 83.5316 109.064 86.304C108.128 89.0765 106.913 91.8697 107.072 94.7915C107.231 97.7134 109.354 100.803 112.28 100.805C107.944 101.479 103.522 102.153 99.1878 101.463C94.8539 100.772 90.5429 98.4803 88.5306 94.5803C87.5248 92.6309 87.1371 90.3896 85.982 88.5248C84.0145 85.3486 80.2387 83.855 76.6761 82.7293C73.1136 81.6035 69.301 80.5191 66.7927 77.7501C64.4027 75.1118 63.6457 71.4365 62.3795 68.1094C60.2469 62.5398 56.5428 57.7094 51.7173 54.2048" fill="#063940"/>
<path d="M56.3567 39.9399C55.1851 39.3949 53.7467 39.2162 52.5546 39.7226C51.3625 40.2291 50.5498 41.5272 50.9353 42.676C51.1101 43.1969 51.5081 43.7092 51.353 44.2352C51.2337 44.6401 50.8173 44.9075 50.4083 45.0975C49.9994 45.2876 49.5521 45.4474 49.2564 45.768C48.9606 46.0886 48.8989 46.6405 49.2684 46.8891C49.3901 46.971 49.5422 47.0099 49.6602 47.0962C49.7608 47.1779 49.8334 47.289 49.8679 47.4139C49.9023 47.5389 49.8969 47.6715 49.8524 47.7932C49.7541 48.0381 49.5915 48.252 49.3818 48.4123C48.9624 48.774 48.4082 49.188 48.5384 49.7014C48.5867 49.8386 48.6674 49.9622 48.7737 50.0615C48.8799 50.1609 49.0086 50.2332 49.1487 50.2722C49.4397 50.3562 49.7417 50.396 50.0446 50.3905L62.4199 50.7803C62.8284 50.811 63.2392 50.7881 63.6418 50.7121C63.8374 50.6764 64.0236 50.6007 64.1887 50.4898C64.3539 50.3789 64.4943 50.2351 64.6013 50.0674C64.8383 49.6288 64.6827 49.0884 64.3901 48.6788C64.0974 48.2692 63.6832 47.9461 63.341 47.57C62.9987 47.1938 62.7187 46.7243 62.779 46.2382C62.8273 45.849 63.084 45.5127 63.2682 45.1591C63.4524 44.8055 63.5594 44.3637 63.3208 44.0384C62.9846 43.5801 62.1773 43.6215 61.795 43.1944C61.5065 42.8721 61.5622 42.4081 61.5335 41.9924C61.4645 40.9926 60.7723 40.0484 59.787 39.6099C59.2859 39.3948 58.7409 39.302 58.1969 39.339C57.6529 39.3761 57.1254 39.5419 56.6582 39.823L56.3567 39.9399Z" fill="#2F2E41"/>
<path d="M48.5363 102.695L46.5981 102.113L47.9219 94.3597L50.7826 95.2193L48.5363 102.695Z" fill="#A0616A"/>
<path d="M48.466 104.723L42.2163 102.845L42.2401 102.766C42.336 102.446 42.494 102.149 42.7049 101.891C42.9158 101.632 43.1755 101.418 43.4693 101.26C43.763 101.102 44.085 101.003 44.4169 100.97C44.7487 100.936 45.084 100.968 45.4034 101.064L49.2206 102.211L48.466 104.723Z" fill="#2F2E41"/>
<path d="M66.8264 102.761L64.8026 102.761L63.8398 94.9546L66.8268 94.9548L66.8264 102.761Z" fill="#A0616A"/>
<path d="M67.3428 104.723L60.8171 104.722V104.64C60.8171 104.306 60.8828 103.976 61.0105 103.668C61.1381 103.36 61.3252 103.08 61.5611 102.844C61.7969 102.608 62.0769 102.421 62.3851 102.293C62.6933 102.166 63.0236 102.1 63.3571 102.1L67.3429 102.1L67.3428 104.723Z" fill="#2F2E41"/>
<path d="M64.0171 96.8566C63.8405 96.8565 63.6697 96.7935 63.5353 96.6789C63.401 96.5643 63.3118 96.4056 63.2839 96.2313L60.2789 77.4858C60.259 77.3616 60.1991 77.2474 60.1084 77.1603C60.0176 77.0733 59.9009 77.0182 59.7761 77.0034C59.6512 76.9887 59.5249 77.0151 59.4164 77.0787C59.3079 77.1422 59.2231 77.2394 59.1748 77.3555L51.3895 96.0979C51.317 96.271 51.1819 96.4103 51.0112 96.4881C50.8405 96.566 50.6467 96.5766 50.4685 96.5179L47.6566 95.5805C47.4815 95.5227 47.3342 95.4016 47.2437 95.241C47.1531 95.0804 47.1257 94.8918 47.1669 94.712L53.547 66.48C53.5782 66.344 53.6469 66.2195 53.7453 66.1205C53.8437 66.0216 53.9678 65.9521 54.1036 65.9201L62.6601 63.9339C62.7652 63.91 62.8743 63.909 62.9799 63.9309C63.0855 63.9528 63.1851 63.9971 63.2721 64.0609C68.9063 68.1547 68.4303 81.5297 67.3803 96.0528C67.3672 96.2346 67.2877 96.4053 67.157 96.5323C67.0263 96.6593 66.8535 96.7339 66.6714 96.7418L64.0496 96.856C64.0387 96.8563 64.0279 96.8566 64.0171 96.8566Z" fill="#063940"/>
<path d="M56.8145 50.6845C59.0538 50.6845 60.869 48.8692 60.869 46.6299C60.869 44.3907 59.0538 42.5754 56.8145 42.5754C54.5753 42.5754 52.76 44.3907 52.76 46.6299C52.76 48.8692 54.5753 50.6845 56.8145 50.6845Z" fill="#A0616A"/>
<path d="M56.9894 67.6439C56.0161 67.6377 55.0564 67.4159 54.1791 66.9944L54.149 66.9804L54.137 66.9493L50.5004 57.5272L50.4312 55.8901C50.4081 55.3427 50.4998 54.7964 50.7005 54.2865C50.9013 53.7767 51.2065 53.3145 51.5967 52.9298C51.9869 52.5451 52.4533 52.2463 52.9659 52.0528C53.4786 51.8592 54.0261 51.7752 54.5731 51.806L58.434 52.0235C59.4313 52.0802 60.3695 52.5148 61.0576 53.2389C61.7457 53.963 62.132 54.9222 62.1378 55.9211C62.2381 56.1137 62.9502 57.6201 61.5546 59.0353C61.5024 59.3576 61.0142 62.7079 62.8565 64.5502L62.9083 64.6019L62.863 64.6595C62.8337 64.6969 60.4677 67.6435 56.9894 67.6439Z" fill="#015257"/>
<path d="M62.4111 68.3548C62.6393 68.2721 62.8465 68.1404 63.0182 67.9689C63.1899 67.7974 63.322 67.5904 63.405 67.3623C63.4881 67.1343 63.5201 66.8908 63.4989 66.6491C63.4777 66.4073 63.4037 66.1732 63.2822 65.9631L67.1383 61.4988L64.0985 61.1031L60.9027 65.4032C60.5634 65.6307 60.3192 65.9748 60.2166 66.3703C60.114 66.7657 60.16 67.1851 60.3459 67.549C60.5318 67.9128 60.8448 68.1958 61.2254 68.3443C61.606 68.4928 62.0279 68.4966 62.4111 68.3548Z" fill="#A0616A"/>
<path d="M64.8217 64.9091C64.6768 64.9091 64.5351 64.8666 64.4141 64.7869L62.507 63.5361C62.3466 63.4314 62.2331 63.2686 62.19 63.082C62.147 62.8954 62.1778 62.6994 62.2761 62.535L63.6567 60.2153C63.7314 60.0898 63.7787 59.95 63.7955 59.8049C63.8123 59.6598 63.7983 59.5128 63.7542 59.3736C63.7102 59.2344 63.6372 59.106 63.5401 58.997C63.4429 58.8879 63.3238 58.8007 63.1905 58.7409L59.2241 56.9626C58.7362 56.7412 58.3381 56.3606 58.0948 55.8833C57.8515 55.406 57.7775 54.8602 57.8849 54.3354C57.9591 53.9814 58.1139 53.6494 58.3373 53.365C58.5607 53.0807 58.8467 52.8517 59.1731 52.6959C59.4994 52.5401 59.8573 52.4617 60.2189 52.4668C60.5805 52.4719 60.936 52.5603 61.2579 52.7252L67.2754 55.8087C67.6813 56.0167 68.0375 56.31 68.3196 56.6685C68.6016 57.027 68.8029 57.4421 68.9096 57.8856C69.0163 58.3291 69.0258 58.7904 68.9377 59.238C68.8495 59.6855 68.6656 60.1087 68.3987 60.4786L65.424 64.6006C65.3553 64.6961 65.2648 64.774 65.1601 64.8276C65.0554 64.8813 64.9394 64.9092 64.8217 64.9091Z" fill="#015257"/>
<path d="M52.6667 46.0536C53.9471 45.9507 55.0102 44.6716 54.877 43.394C54.862 43.9206 55.0411 44.4344 55.3802 44.8375C55.7193 45.2407 56.1948 45.5052 56.7162 45.5806C57.3035 45.6453 57.9474 45.4676 58.4587 45.7639C59.0249 46.0921 59.2061 46.889 59.796 47.1725C60.3659 47.4464 61.0898 47.0728 61.3714 46.5067C61.653 45.9405 61.5839 45.2603 61.3972 44.6561C61.1311 43.7945 60.6465 43.0165 59.9906 42.3976C59.3347 41.7788 58.5298 41.3402 57.6542 41.1246C56.7786 40.909 55.8621 40.9236 54.9938 41.1671C54.1256 41.4106 53.3351 41.8747 52.6993 42.5142C52.1609 43.0558 51.7334 43.7459 51.6641 44.5064C51.5948 45.2669 51.9476 46.0921 52.6305 46.4337L52.6667 46.0536Z" fill="#2F2E41"/>
<path d="M43.2339 34.8224C43.4475 34.9376 43.6333 35.0982 43.7781 35.2929C43.9229 35.4876 44.0233 35.7117 44.0722 35.9494C44.1211 36.1872 44.1172 36.4327 44.0609 36.6687C44.0046 36.9048 43.8972 37.1257 43.7464 37.3157L46.9091 42.2953L43.8441 42.2428L41.3106 37.5222C41.0081 37.2475 40.8168 36.8715 40.773 36.4652C40.7293 36.059 40.836 35.6508 41.0731 35.318C41.3102 34.9853 41.6611 34.751 42.0593 34.6597C42.4576 34.5683 42.8755 34.6262 43.2339 34.8224Z" fill="#A0616A"/>
<path d="M45.7831 38.3683L49.8562 47.9926L54.1266 55.2337C54.3069 55.5394 54.4153 55.882 54.4437 56.2357C54.4722 56.5895 54.4199 56.945 54.2907 57.2756C54.1616 57.6061 53.9591 57.903 53.6985 58.1439C53.4378 58.3847 53.1258 58.5631 52.7861 58.6657C52.2473 58.8256 51.6691 58.7875 51.156 58.5584C50.6428 58.3292 50.2285 57.9241 49.9879 57.4162L41.7575 39.83C41.7128 39.7344 41.689 39.6305 41.6876 39.525C41.6862 39.4195 41.7072 39.3149 41.7494 39.2182C41.7916 39.1215 41.8538 39.0349 41.9321 38.9642C42.0103 38.8934 42.1027 38.8401 42.2031 38.8079L44.8718 37.9506C44.9224 37.9343 44.9745 37.9234 45.0274 37.918C45.185 37.9021 45.3435 37.9373 45.4796 38.0184C45.6157 38.0994 45.7221 38.2221 45.7831 38.3683Z" fill="#015257"/>
<path d="M83.8892 105.33H0.110818C0.0814272 105.33 0.0532401 105.313 0.0324577 105.282C0.0116753 105.251 0 105.209 0 105.165C0 105.121 0.0116753 105.079 0.0324577 105.048C0.0532401 105.017 0.0814272 105 0.110818 105H83.8892C83.9186 105 83.9468 105.017 83.9675 105.048C83.9883 105.079 84 105.121 84 105.165C84 105.209 83.9883 105.251 83.9675 105.282C83.9468 105.313 83.9186 105.33 83.8892 105.33Z" fill="#CCCCCC"/>
<path d="M57.6937 17.8637V31.4002C57.6937 31.4439 57.6763 31.4859 57.6453 31.5169C57.6144 31.5478 57.5724 31.5652 57.5286 31.5652C57.4848 31.5652 57.4428 31.5478 57.4119 31.5169C57.3809 31.4859 57.3635 31.4439 57.3635 31.4002V17.8637C57.3635 17.8199 57.3809 17.7779 57.4119 17.747C57.4428 17.716 57.4848 17.6986 57.5286 17.6986C57.5724 17.6986 57.6144 17.716 57.6453 17.747C57.6763 17.7779 57.6937 17.8199 57.6937 17.8637Z" fill="#CCCCCC"/>
<path d="M72.0271 29.3473L67.358 34.0164C67.327 34.0472 67.285 34.0645 67.2413 34.0645C67.1976 34.0644 67.1557 34.047 67.1248 34.0161C67.0939 33.9852 67.0765 33.9433 67.0764 33.8996C67.0764 33.8559 67.0937 33.8139 67.1245 33.7829L71.7936 29.1138C71.809 29.0984 71.8272 29.0862 71.8472 29.0779C71.8672 29.0695 71.8887 29.0652 71.9104 29.0652C71.9322 29.0652 71.9537 29.0694 71.9737 29.0777C71.9938 29.086 72.012 29.0982 72.0274 29.1135C72.0427 29.1289 72.0549 29.1471 72.0632 29.1672C72.0715 29.1872 72.0757 29.2087 72.0757 29.2305C72.0757 29.2522 72.0714 29.2736 72.063 29.2937C72.0547 29.3137 72.0425 29.3319 72.0271 29.3473Z" fill="#CCCCCC"/>
<path d="M43.0305 29.3473L47.6997 34.0164C47.7306 34.0473 47.7726 34.0647 47.8164 34.0647C47.8602 34.0647 47.9022 34.0473 47.9331 34.0164C47.9641 33.9854 47.9815 33.9434 47.9815 33.8997C47.9815 33.8559 47.9641 33.8139 47.9331 33.7829L43.264 29.1138C43.2487 29.0984 43.2305 29.0862 43.2104 29.0779C43.1904 29.0695 43.1689 29.0652 43.1472 29.0652C43.1255 29.0652 43.104 29.0694 43.0839 29.0777C43.0639 29.086 43.0456 29.0982 43.0303 29.1135C43.0149 29.1289 43.0028 29.1471 42.9945 29.1672C42.9862 29.1872 42.9819 29.2087 42.9819 29.2305C42.982 29.2522 42.9863 29.2736 42.9946 29.2937C43.003 29.3137 43.0152 29.3319 43.0305 29.3473Z" fill="#CCCCCC"/>
</svg>
