<svg width="154" height="102" viewBox="0 0 154 102" fill="none" xmlns="http://www.w3.org/2000/svg">
<path d="M32.9064 59.3216C25.74 52.2667 22.7132 44.9067 24.3834 38.5976C26.5269 30.5011 36.0492 24.9031 50.5086 23.2389L50.562 23.7033C36.3039 25.3442 26.9269 30.8166 24.8353 38.7171C23.2098 44.8572 26.1927 52.0564 33.2344 58.9886L32.9064 59.3216Z" fill="#F0F0F0"/>
<path d="M102.051 84.3643C93.1065 84.3643 83.3871 83.0351 73.7329 80.4793C61.7942 77.3186 50.8478 72.548 42.0769 66.683L42.3366 66.2946C51.0653 72.1312 61.9632 76.88 73.8525 80.0274C84.5967 82.8719 95.4214 84.1899 105.152 83.8421L105.169 84.309C104.142 84.346 103.102 84.3644 102.051 84.3643Z" fill="#F0F0F0"/>
<path d="M122.57 81.4249L122.42 80.9821C130.42 78.2775 135.423 73.9206 136.889 68.3822C138.753 61.3415 134.704 53.1712 125.487 45.3763C116.223 37.5418 102.865 31.0412 87.8721 27.0721L87.9917 26.6202C103.05 30.6068 116.474 37.1411 125.789 45.0195C135.151 52.9374 139.254 61.2769 137.341 68.5018C135.833 74.1991 130.725 78.6677 122.57 81.4249Z" fill="#F0F0F0"/>
<path d="M49.1171 84.5594C31.5423 76.7648 17.9996 66.6522 10.9839 56.0844L11.3732 55.8258C18.3404 66.3205 31.8121 76.3732 49.3065 84.1322L49.1171 84.5594Z" fill="#F0F0F0"/>
<path d="M110.909 98.0632C109.096 98.0632 107.252 98.0227 105.378 97.9417L105.398 97.4748C119.388 98.0805 131.732 96.4063 141.097 92.6322L141.272 93.0658C133.102 96.3577 122.689 98.0632 110.909 98.0632Z" fill="#F0F0F0"/>
<path d="M100.711 23.658C97.8066 22.7122 94.8187 21.8317 91.8309 21.0407C74.6369 16.4888 57.735 14.8727 42.9518 16.3678L42.9048 15.9027C57.7431 14.4026 74.7029 16.0227 91.9505 20.5888C94.9468 21.3821 97.9431 22.2652 100.856 23.2137L100.711 23.658Z" fill="#F0F0F0"/>
<path d="M21.9228 60.0226C14.7563 52.9678 11.7296 45.6078 13.3998 39.2986C15.5432 31.2021 25.0655 25.6041 39.525 23.9399L39.5784 24.4044C25.3202 26.0453 15.9432 31.5177 13.8517 39.4182C12.2262 45.5582 15.209 52.7575 22.2508 59.6897L21.9228 60.0226Z" fill="#F0F0F0"/>
<path d="M91.0668 85.0653C82.1226 85.0653 72.4032 83.7361 62.749 81.1803C50.8103 78.0197 39.8639 73.2491 31.093 67.384L31.3527 66.9956C40.0814 72.8322 50.9793 77.581 62.8686 80.7284C73.6128 83.573 84.4375 84.8909 94.1686 84.5431L94.1855 85.0101C93.1578 85.047 92.1182 85.0654 91.0668 85.0653Z" fill="#F0F0F0"/>
<path d="M111.586 82.1262L111.436 81.6834C119.436 78.9788 124.439 74.6219 125.905 69.0835C127.769 62.0428 123.72 53.8725 114.503 46.0776C105.239 38.2431 91.8809 31.7425 76.8879 27.7734L77.0075 27.3215C92.066 31.3081 105.489 37.8424 114.805 45.7208C124.167 53.6387 128.27 61.9782 126.357 69.2031C124.849 74.9004 119.741 79.369 111.586 82.1262Z" fill="#F0F0F0"/>
<path d="M38.1332 85.2607C20.5584 77.4661 7.01571 67.3535 0 56.7857L0.389347 56.5271C7.35658 67.0218 20.8282 77.0745 38.3227 84.8335L38.1332 85.2607Z" fill="#F0F0F0"/>
<path d="M99.9247 98.7642C98.1119 98.7642 96.2682 98.7237 94.3936 98.6428L94.4136 98.1759C108.404 98.7816 120.748 97.1073 130.113 93.3333L130.288 93.7669C122.118 97.0587 111.705 98.7642 99.9247 98.7642Z" fill="#F0F0F0"/>
<path d="M89.7275 24.3593C86.8227 23.4136 83.8349 22.533 80.847 21.742C63.653 17.1901 46.7511 15.574 31.9679 17.0691L31.9209 16.604C46.7592 15.1039 63.719 16.724 80.9666 21.2901C83.9629 22.0834 86.9592 22.9665 89.8722 23.9149L89.7275 24.3593Z" fill="#F0F0F0"/>
<path d="M7.96642 47.5038C11.3252 43.7379 16.683 41.4428 21.5384 42.8167C17.0591 45.9866 13.8454 50.6387 12.4659 55.9499C11.9413 58.0001 11.5713 60.3351 9.86624 61.5887C8.80531 62.3687 7.39954 62.555 6.0948 62.3774C4.79001 62.1997 3.55629 61.6923 2.33922 61.1895L2.01172 61.2179C2.95331 56.2605 4.60765 51.2696 7.96642 47.5038Z" fill="#F2F2F2"/>
<path d="M21.5235 42.9215C17.4641 43.9044 13.8175 46.1413 11.1019 49.3147C10.5051 49.9874 10.0181 50.75 9.65885 51.5745C9.33482 52.3888 9.23479 53.2752 9.36914 54.1413C9.47819 54.9514 9.68354 55.7674 9.59377 56.5899C9.54156 57.0102 9.40109 57.4148 9.18157 57.777C8.96205 58.1392 8.66844 58.451 8.31999 58.6918C7.46736 59.3144 6.44187 59.5935 5.42955 59.8316C4.30555 60.096 3.13388 60.3528 2.21764 61.0997C2.10662 61.1902 1.97268 61.0127 2.08353 60.9223C3.67762 59.6227 5.89306 59.7896 7.65678 58.8456C8.47976 58.4051 9.17499 57.714 9.34402 56.7656C9.49183 55.9362 9.28079 55.0946 9.16329 54.2753C9.01984 53.4323 9.08499 52.567 9.35305 51.7549C9.66919 50.9149 10.126 50.1348 10.7039 49.448C11.9802 47.8811 13.4949 46.5245 15.1926 45.4282C17.1232 44.1661 19.2555 43.2436 21.4972 42.7006C21.636 42.667 21.6613 42.8881 21.5235 42.9215Z" fill="white"/>
<path d="M11.916 48.2416C11.4454 47.7137 11.1778 47.0357 11.161 46.3287C11.1442 45.6217 11.3792 44.9317 11.8241 44.382C11.9145 44.2711 12.0911 44.4064 12.0006 44.5175C11.5854 45.0286 11.3665 45.6713 11.3835 46.3296C11.4005 46.9879 11.6523 47.6185 12.0934 48.1074C12.1891 48.2138 12.0112 48.3473 11.916 48.2416Z" fill="white"/>
<path d="M9.25979 53.738C10.7022 53.8338 12.1278 53.3824 13.2522 52.4738C13.3636 52.3837 13.4976 52.5612 13.3864 52.6512C12.2145 53.5945 10.73 54.0612 9.22917 53.9583C9.08612 53.9483 9.11752 53.7281 9.25979 53.738Z" fill="white"/>
<path d="M17.1736 44.4569C17.3131 44.6991 17.5106 44.9028 17.7483 45.0499C17.986 45.1969 18.2565 45.2825 18.5355 45.2992C18.6786 45.3073 18.6471 45.5275 18.5049 45.5195C18.1967 45.4997 17.8981 45.4047 17.6351 45.2428C17.3721 45.081 17.1527 44.8572 16.9962 44.591C16.9793 44.5671 16.9722 44.5378 16.9762 44.5088C16.9802 44.4799 16.9951 44.4536 17.0178 44.4352C17.0414 44.4176 17.071 44.41 17.1002 44.414C17.1293 44.4181 17.1557 44.4335 17.1736 44.4569Z" fill="white"/>
<path d="M28.4308 58.4498C28.3413 58.4473 28.2518 58.4448 28.1611 58.4438C26.9577 58.4162 25.7541 58.4864 24.562 58.6537C24.4697 58.6652 24.3762 58.6782 24.2844 58.6923C21.4168 59.1261 18.6547 60.0886 16.1384 61.5307C15.1377 62.1054 14.1821 62.7555 13.28 63.4752C12.0342 64.4693 10.7625 65.6463 9.30399 66.1557C9.15242 66.2106 8.9976 66.256 8.84042 66.2917L2.07186 61.6153C2.06181 61.5969 2.05063 61.5801 2.0405 61.5617L1.76172 61.3873C1.80565 61.3469 1.85209 61.306 1.89602 61.2656C1.92141 61.2421 1.94831 61.2196 1.97369 61.1961C1.99109 61.1808 2.00858 61.1654 2.0234 61.1506C2.02918 61.1455 2.03503 61.1404 2.03974 61.1368C2.05457 61.1219 2.06991 61.1097 2.08367 61.0964C2.34259 60.8669 2.60357 60.6389 2.86662 60.4122C2.86769 60.4107 2.86769 60.4107 2.87027 60.4102C4.87897 58.6884 7.04905 57.1192 9.38833 55.9293C9.45872 55.8935 9.53011 55.8561 9.60359 55.8225C10.661 55.292 11.76 54.8488 12.8896 54.4973C13.5088 54.3068 14.1372 54.1478 14.7724 54.0209C16.4144 53.6961 18.0973 53.6316 19.7593 53.8298C23.0725 54.2253 26.2223 55.6761 28.2758 58.2515C28.3283 58.3174 28.3794 58.3823 28.4308 58.4498Z" fill="#F2F2F2"/>
<path d="M28.3563 58.5252C24.5233 56.866 20.2649 56.4566 16.186 57.3553C15.3045 57.5332 14.4565 57.8489 13.6733 58.2908C12.9243 58.746 12.3108 59.3934 11.8966 60.1659C11.4959 60.8783 11.1686 61.6535 10.6017 62.2562C10.307 62.5603 9.95124 62.7988 9.55787 62.9558C9.1645 63.1129 8.74238 63.185 8.31918 63.1675C7.26355 63.1513 6.27671 62.7567 5.32507 62.3374C4.26846 61.8717 3.17835 61.3713 1.99705 61.4161C1.85392 61.4215 1.85387 61.1991 1.99678 61.1937C4.05204 61.1158 5.72048 62.5829 7.69704 62.891C8.61934 63.0348 9.59057 62.9016 10.2965 62.2461C10.9139 61.6729 11.2521 60.8738 11.6516 60.1489C12.0446 59.3895 12.6176 58.7378 13.3205 58.2508C14.0787 57.7704 14.9131 57.4226 15.788 57.2221C17.7504 56.7395 19.7766 56.5683 21.7922 56.7151C24.0935 56.8698 26.3515 57.417 28.4683 58.3331C28.5993 58.3898 28.4864 58.5816 28.3563 58.5252Z" fill="white"/>
<path d="M17.4822 56.9886C17.4243 56.2838 17.6188 55.5813 18.0311 55.0067C18.4433 54.4321 19.0463 54.0227 19.7325 53.8517C19.8715 53.8176 19.9311 54.0319 19.7919 54.0661C19.1526 54.2242 18.5909 54.6056 18.2082 55.1414C17.8254 55.6773 17.6468 56.3323 17.7046 56.9883C17.717 57.1309 17.4945 57.1304 17.4822 56.9886Z" fill="white"/>
<path d="M12.0521 59.778C13.1461 60.7229 14.5561 61.2208 16.0009 61.1723C16.1441 61.1674 16.1442 61.3898 16.0012 61.3947C14.4976 61.4424 13.0313 60.9213 11.895 59.9354C11.7868 59.8414 11.9444 59.6844 12.0521 59.778Z" fill="white"/>
<path d="M23.9584 57.1321C23.924 57.4094 23.959 57.691 24.0603 57.9515C24.1615 58.212 24.3259 58.4433 24.5387 58.6246C24.6481 58.7172 24.4903 58.874 24.3816 58.782C24.1475 58.5807 23.9662 58.325 23.8537 58.0374C23.7412 57.7499 23.7007 57.4391 23.736 57.1323C23.7369 57.1031 23.7489 57.0754 23.7695 57.0547C23.7901 57.034 23.8179 57.022 23.8471 57.021C23.8765 57.0211 23.9047 57.0328 23.9256 57.0536C23.9464 57.0744 23.9582 57.1026 23.9584 57.1321Z" fill="white"/>
<path d="M139.575 78.3744C137.677 73.6987 133.402 69.7363 128.368 69.3984C131.521 73.8894 132.984 79.351 132.498 84.8169C132.303 86.9242 131.867 89.2477 133.052 91.0014C133.789 92.0926 135.05 92.7406 136.338 93.0118C137.627 93.283 138.96 93.2198 140.275 93.1553L140.574 93.2921C141.353 88.3066 141.472 83.05 139.575 78.3744Z" fill="#F2F2F2"/>
<path d="M128.347 69.5021C131.84 71.7922 134.522 75.1246 136.013 79.0261C136.349 79.8603 136.552 80.7422 136.613 81.6394C136.644 82.5153 136.441 83.3837 136.023 84.1543C135.648 84.8806 135.18 85.5801 134.988 86.3849C134.896 86.7984 134.893 87.2266 134.978 87.6415C135.063 88.0565 135.234 88.4488 135.482 88.7927C136.075 89.6656 136.947 90.2732 137.821 90.8377C138.791 91.4644 139.808 92.1001 140.42 93.1115C140.494 93.2341 140.68 93.1119 140.606 92.9895C139.541 91.2297 137.398 90.6423 136.055 89.1604C135.428 88.469 135.005 87.5844 135.165 86.6343C135.304 85.8036 135.786 85.0818 136.172 84.3497C136.59 83.6039 136.82 82.767 136.84 81.9122C136.825 81.0147 136.657 80.1265 136.343 79.2854C135.668 77.3807 134.697 75.594 133.467 73.9908C132.073 72.1532 130.374 70.5677 128.446 69.3029C128.326 69.2246 128.228 69.4244 128.347 69.5021Z" fill="white"/>
<path d="M135.607 77.7416C136.227 77.4026 136.707 76.854 136.961 76.1938C137.214 75.5336 137.225 74.8048 136.99 74.1375C136.943 74.0027 136.731 74.0707 136.779 74.2057C136.998 74.8267 136.988 75.5056 136.751 76.1199C136.514 76.7342 136.065 77.2434 135.485 77.5557C135.359 77.6237 135.482 77.8092 135.607 77.7416Z" fill="white"/>
<path d="M136.261 83.8111C134.871 83.4165 133.68 82.5122 132.926 81.2786C132.852 81.1563 132.666 81.2785 132.74 81.4006C133.527 82.6829 134.768 83.6214 136.216 84.0288C136.354 84.0676 136.399 83.8496 136.261 83.8111Z" fill="white"/>
<path d="M131.928 72.4101C131.715 72.5913 131.461 72.7169 131.187 72.7754C130.914 72.834 130.63 72.8238 130.362 72.7456C130.224 72.7052 130.18 72.9232 130.317 72.9634C130.614 73.0483 130.927 73.0592 131.229 72.9952C131.531 72.9312 131.813 72.7941 132.05 72.596C132.074 72.5792 132.09 72.554 132.096 72.5254C132.102 72.4968 132.097 72.467 132.082 72.4421C132.065 72.4175 132.04 72.4004 132.011 72.3944C131.982 72.3884 131.952 72.3941 131.928 72.4101Z" fill="white"/>
<path d="M116.623 81.8057C116.708 81.8334 116.793 81.8611 116.879 81.8906C118.021 82.2691 119.131 82.7398 120.198 83.298C120.281 83.3399 120.364 83.3836 120.446 83.4277C123.001 84.8001 125.279 86.6348 127.164 88.8388C127.914 89.7164 128.595 90.6499 129.203 91.631C130.042 92.9859 130.844 94.5218 132.047 95.4918C132.171 95.5944 132.302 95.6892 132.438 95.7757L140.384 93.6462C140.4 93.6323 140.416 93.6202 140.432 93.6063L140.753 93.5358C140.725 93.483 140.695 93.4288 140.667 93.376C140.651 93.3453 140.634 93.3151 140.618 93.2844C140.606 93.2641 140.595 93.2438 140.586 93.2249C140.582 93.2181 140.578 93.2113 140.575 93.2064C140.566 93.1874 140.556 93.1707 140.547 93.1536C140.381 92.8504 140.212 92.5479 140.04 92.2461C140.04 92.2442 140.04 92.2442 140.037 92.2429C138.724 89.9462 137.208 87.7389 135.404 85.8319C135.35 85.7746 135.295 85.7154 135.238 85.659C134.42 84.804 133.534 84.0171 132.588 83.3065C132.069 82.919 131.531 82.558 130.975 82.225C129.538 81.3672 127.974 80.7409 126.342 80.3689C123.089 79.6278 119.635 79.9355 116.835 81.671C116.764 81.7154 116.694 81.7594 116.623 81.8057Z" fill="#F2F2F2"/>
<path d="M116.667 81.9016C120.835 81.6271 124.983 82.6728 128.522 84.8901C129.293 85.354 129.985 85.9363 130.575 86.6158C131.127 87.2962 131.487 88.1122 131.618 88.9789C131.756 89.7846 131.803 90.6247 132.135 91.3828C132.31 91.7684 132.565 92.1125 132.883 92.3926C133.2 92.6728 133.574 92.8826 133.978 93.0083C134.978 93.3478 136.04 93.3079 137.077 93.2328C138.229 93.1493 139.424 93.0444 140.521 93.4836C140.654 93.5369 140.729 93.3274 140.596 93.2743C138.687 92.5101 136.622 93.3311 134.657 92.957C133.74 92.7825 132.87 92.3305 132.426 91.4759C132.037 90.7286 131.987 89.8623 131.854 89.0453C131.739 88.1979 131.419 87.3916 130.92 86.6967C130.368 85.9894 129.699 85.3813 128.942 84.8985C127.256 83.7843 125.405 82.9422 123.458 82.4029C121.238 81.7751 118.928 81.5316 116.626 81.683C116.484 81.6924 116.525 81.911 116.667 81.9016Z" fill="white"/>
<path d="M127.425 84.1091C127.716 83.4647 127.769 82.7378 127.574 82.058C127.379 81.3783 126.949 80.79 126.36 80.3983C126.24 80.3195 126.112 80.5013 126.232 80.5803C126.781 80.944 127.182 81.492 127.362 82.1254C127.542 82.7587 127.491 83.4357 127.216 84.0341C127.156 84.1642 127.366 84.2384 127.425 84.1091Z" fill="white"/>
<path d="M131.602 88.5611C130.254 89.0834 128.758 89.0784 127.414 88.5471C127.281 88.4944 127.206 88.7038 127.339 88.7565C128.739 89.3067 130.295 89.3088 131.697 88.7622C131.83 88.71 131.735 88.5092 131.602 88.5611Z" fill="white"/>
<path d="M121.278 82.0674C121.217 82.3403 121.089 82.5937 120.906 82.805C120.723 83.0163 120.491 83.1789 120.229 83.2781C120.095 83.3286 120.191 83.5293 120.324 83.4792C120.613 83.3682 120.869 83.1884 121.072 82.9553C121.275 82.7223 121.417 82.4432 121.487 82.1424C121.496 82.1146 121.494 82.0845 121.482 82.0581C121.469 82.0316 121.447 82.011 121.42 82.0003C121.392 81.9905 121.362 81.992 121.335 82.0046C121.308 82.0172 121.288 82.0398 121.278 82.0674Z" fill="white"/>
<path d="M102.759 94.2957C103.792 94.2957 104.629 93.4586 104.629 92.4261C104.629 91.3936 103.792 90.5565 102.759 90.5565C101.726 90.5565 100.889 91.3936 100.889 92.4261C100.889 93.4586 101.726 94.2957 102.759 94.2957Z" fill="#FD6584"/>
<path d="M109.381 62.4525C110.414 62.4525 111.251 61.6155 111.251 60.583C111.251 59.5504 110.414 58.7134 109.381 58.7134C108.349 58.7134 107.512 59.5504 107.512 60.583C107.512 61.6155 108.349 62.4525 109.381 62.4525Z" fill="#E6E6E6"/>
<path d="M74.5925 10.5938C75.625 10.5938 76.4621 9.75674 76.4621 8.7242C76.4621 7.69165 75.625 6.85461 74.5925 6.85461C73.5599 6.85461 72.7229 7.69165 72.7229 8.7242C72.7229 9.75674 73.5599 10.5938 74.5925 10.5938Z" fill="#E6E6E6"/>
<path d="M35.4146 80.4411C35.4146 80.917 35.4302 81.3929 35.4635 81.8649C35.4988 82.429 35.5595 82.9891 35.6418 83.5453C35.9182 85.4181 36.4466 87.245 37.2125 88.9762C37.2516 89.0624 37.2908 89.1486 37.33 89.2348L37.3887 89.364C37.4083 89.4071 37.4299 89.4502 37.4494 89.4913C37.4769 89.5481 37.5023 89.6029 37.5297 89.6578C37.563 89.7263 37.5963 89.7949 37.6316 89.8634C37.6355 89.8713 37.6394 89.881 37.6453 89.8908C37.6747 89.9496 37.7021 90.0064 37.7334 90.0652C37.7392 90.0779 37.7457 90.0904 37.753 90.1024C37.7863 90.169 37.8216 90.2375 37.8568 90.3041C37.896 90.3746 37.9332 90.4471 37.9724 90.5176C38.0664 90.6919 38.1643 90.8642 38.2642 91.0366C38.2936 91.0875 38.3229 91.1384 38.3543 91.1893C38.3817 91.2363 38.4091 91.2833 38.4385 91.3303C38.4581 91.3617 38.4777 91.395 38.4972 91.4263C38.5286 91.4792 38.5599 91.5301 38.5932 91.583C38.6657 91.6985 38.7401 91.8141 38.8126 91.9296H38.8145C38.8478 91.9825 38.8831 92.0354 38.9183 92.0863V92.0883C39.0221 92.2449 39.1298 92.4016 39.2375 92.5563L39.2383 92.5565L39.2389 92.5569L39.2394 92.5575L39.2395 92.5583C39.3257 92.6836 39.4158 92.8051 39.5039 92.9265V92.9285C39.5627 93.0048 39.6195 93.0832 39.6782 93.1596C39.7252 93.2222 39.7742 93.2869 39.8231 93.3495C39.8329 93.3632 39.8447 93.375 39.8545 93.3887V93.3907C39.8682 93.4083 39.8819 93.424 39.8956 93.4416C40.1032 93.7079 40.3173 93.9684 40.538 94.223L40.5732 94.2641C40.585 94.2779 40.5987 94.2916 40.6105 94.3072C40.63 94.3288 40.6477 94.3503 40.6672 94.3719C40.6849 94.3934 40.7045 94.415 40.724 94.4365C41.8743 95.7322 43.1785 96.8825 44.6077 97.8619C44.7977 97.9931 44.9916 98.1204 45.1855 98.2438C45.2345 98.2751 45.2834 98.3065 45.3324 98.3359C45.3461 98.3456 45.3618 98.3554 45.3755 98.3652C45.4029 98.3809 45.4283 98.3966 45.4558 98.4142C45.4812 98.4299 45.5067 98.4455 45.5341 98.4612C45.6379 98.5258 45.7437 98.5885 45.8494 98.6512C45.8749 98.6668 45.9023 98.6825 45.9297 98.6982C45.9552 98.7119 45.9826 98.7276 46.01 98.7432C46.01 98.7452 46.01 98.7452 46.012 98.7452H46.0139V98.7472H46.0159C46.1471 98.8235 46.2803 98.8979 46.4154 98.9704C46.4879 99.0096 46.5623 99.0507 46.6367 99.0879C46.8052 99.18 46.9756 99.2681 47.1459 99.3523C47.2067 99.3817 47.2693 99.4111 47.33 99.4424C47.381 99.4659 47.4319 99.4914 47.4828 99.5149C47.4985 99.5227 47.5122 99.5286 47.5259 99.5364C47.569 99.556 47.6101 99.5756 47.6532 99.5952C47.7002 99.6167 47.7472 99.6383 47.7922 99.6598C47.8451 99.6833 47.8961 99.7068 47.9489 99.7283C48.1448 99.8165 48.3426 99.9007 48.5404 99.981C49.2493 100.272 49.9737 100.523 50.7104 100.733C50.7437 100.743 50.7789 100.753 50.8142 100.762C51.1295 100.851 51.4468 100.931 51.766 101.003C52.3242 101.133 52.8876 101.238 53.4562 101.321H53.4601C53.5287 101.33 53.5953 101.34 53.6638 101.35C53.6697 101.35 53.6756 101.352 53.6834 101.352C53.6834 101.354 53.6834 101.354 53.6854 101.352C53.7598 101.362 53.8362 101.372 53.9106 101.381C53.9157 101.383 53.921 101.383 53.9263 101.383C53.9968 101.393 54.0692 101.401 54.1397 101.409C54.2161 101.417 54.2925 101.424 54.3689 101.432C54.4276 101.438 54.4864 101.444 54.5451 101.45C54.5502 101.452 54.5555 101.452 54.5608 101.452C54.6137 101.456 54.6666 101.462 54.7194 101.466H54.7273C54.7723 101.469 54.8193 101.473 54.8644 101.477C55.4108 101.52 55.9592 101.54 56.5154 101.54C57.1166 101.54 57.714 101.516 58.3035 101.466H58.3094C58.4367 101.454 58.562 101.442 58.6874 101.43C58.7207 101.426 58.752 101.424 58.7853 101.42C58.7912 101.42 58.799 101.419 58.8049 101.419C58.8147 101.417 58.8244 101.417 58.8362 101.415C58.8415 101.415 58.8468 101.414 58.8519 101.413C58.895 101.409 58.938 101.403 58.9831 101.399L59.13 101.381C59.1789 101.375 59.2279 101.368 59.2769 101.362C59.2886 101.36 59.2984 101.36 59.3102 101.358C59.3454 101.354 59.3807 101.348 59.4159 101.342C59.4335 101.34 59.4512 101.338 59.4668 101.336C59.5021 101.33 59.5354 101.326 59.5706 101.321H59.5726C60.6473 101.166 61.7081 100.927 62.7454 100.606C62.8002 100.588 62.855 100.572 62.9099 100.555C62.9118 100.555 62.9138 100.553 62.9157 100.553C62.9314 100.547 62.949 100.543 62.9647 100.537C63.1116 100.49 63.2565 100.441 63.4015 100.39C63.6012 100.324 63.799 100.251 63.9968 100.177C64.0497 100.155 64.1026 100.136 64.1555 100.114C64.2632 100.073 64.3689 100.03 64.4747 99.9869C64.6549 99.9144 64.8351 99.838 65.0133 99.7597C65.1798 99.6853 65.3443 99.6108 65.5088 99.5325C65.5127 99.5306 65.5186 99.5306 65.5225 99.5266C65.5597 99.509 65.5969 99.4914 65.6322 99.4737H65.6341C66.5361 99.0409 67.4059 98.5441 68.237 97.9873C68.5033 97.809 68.7658 97.6249 69.0243 97.435C69.2319 97.2802 69.4356 97.1236 69.6393 96.963C70.6441 96.1637 71.5743 95.2748 72.4184 94.3072V94.3053C72.4791 94.2387 72.5359 94.1701 72.5946 94.1016C72.6044 94.0918 72.6122 94.082 72.6201 94.0742C72.6573 94.0291 72.6925 93.9861 72.7298 93.943V93.941C72.7787 93.8842 72.8277 93.8255 72.8747 93.7667C72.8864 93.753 72.8962 93.7412 72.906 93.7295V93.7275C72.9452 93.6805 72.9824 93.6335 73.0216 93.5846C73.0412 93.5611 73.0588 93.5376 73.0784 93.5141V93.5121C73.1939 93.3672 73.3055 93.2222 73.4172 93.0734C73.4466 93.0342 73.4759 92.9931 73.5073 92.952C73.6483 92.762 73.7854 92.5681 73.9186 92.3742V92.3722C73.9695 92.2998 74.0184 92.2254 74.0694 92.1529C74.1183 92.0785 74.1673 92.0041 74.2162 91.9296C74.2652 91.8513 74.3161 91.7749 74.3651 91.6966L74.371 91.6848C74.4199 91.6104 74.4689 91.5321 74.5159 91.4557C74.5531 91.393 74.5903 91.3323 74.6275 91.2716C74.651 91.2305 74.6765 91.1893 74.7 91.1463C74.7092 91.133 74.7177 91.1193 74.7255 91.1051C74.7803 91.0092 74.8351 90.9132 74.89 90.8172C74.9546 90.7056 75.0173 90.592 75.08 90.4784C75.1035 90.4314 75.1289 90.3844 75.1544 90.3374C75.1642 90.3217 75.172 90.3061 75.1798 90.2904C75.2092 90.2356 75.2386 90.1788 75.266 90.122C75.2954 90.0671 75.3248 90.0103 75.3541 89.9535C75.3815 89.8987 75.4109 89.8419 75.4383 89.7851C75.4599 89.742 75.4795 89.6989 75.501 89.6558C75.5025 89.6523 75.5045 89.649 75.5069 89.6461C75.5167 89.6245 75.5265 89.6049 75.5343 89.5853C75.5367 89.5824 75.5387 89.5791 75.5402 89.5755C75.5617 89.5325 75.5813 89.4874 75.6029 89.4443C75.6303 89.3875 75.6557 89.3288 75.6832 89.272C75.7008 89.2328 75.7204 89.1917 75.738 89.1505C75.7635 89.0938 75.7909 89.037 75.8144 88.9782C75.8418 88.9194 75.8673 88.8607 75.8927 88.8C75.9001 88.7853 75.9066 88.7703 75.9123 88.7549C75.926 88.7275 75.9358 88.7001 75.9476 88.6727C75.9789 88.6002 76.0102 88.5258 76.0396 88.4533C76.0749 88.3711 76.1082 88.2869 76.1395 88.2046C76.1708 88.1282 76.2002 88.0499 76.2296 87.9715L76.2413 87.9441C76.6977 86.7422 77.0438 85.5013 77.2754 84.2367V84.2347C77.4061 83.5128 77.4995 82.7845 77.5555 82.053C77.5574 82.0118 77.5614 81.9727 77.5633 81.9335C77.5986 81.438 77.6142 80.9405 77.6142 80.4411C77.6142 80.2198 77.6103 80.0005 77.6044 79.7811C77.4677 75.1936 75.8319 70.7772 72.9471 67.2076C72.8845 67.1293 72.8218 67.0509 72.7572 66.9726C72.6925 66.8942 72.6259 66.8179 72.5613 66.7415C70.4144 64.2272 67.7067 62.2525 64.6565 60.9767C61.6064 59.7009 58.2991 59.1596 55.0014 59.3965C51.7037 59.6334 48.5077 60.6418 45.6713 62.3405C42.8348 64.0392 40.4371 66.3805 38.6716 69.1759C38.5756 69.3286 38.4796 69.4834 38.3876 69.6381C38.2936 69.7948 38.2035 69.9515 38.1134 70.1101C36.3391 73.2639 35.4095 76.8225 35.4146 80.4411Z" fill="#F2F2F2"/>
<path d="M55.6768 66.6404C59.1464 67.5307 62.702 68.0439 66.2817 68.171C66.8231 68.2005 67.3657 68.1968 67.9065 68.16C69.0952 68.06 70.1133 67.6864 71.2472 67.4823C71.7923 67.3844 72.3995 67.3128 72.9483 67.2071C72.8215 67.0497 72.6924 66.8943 72.561 66.7409C71.3777 66.8409 70.1759 67.1681 68.9784 67.3202C66.9426 67.5791 64.6617 67.2902 63.1184 66.5778C62.3697 66.2321 61.7962 65.8006 61.0501 65.4534C60.9486 65.4013 60.8387 65.3676 60.7254 65.3539C60.5103 65.3474 60.2978 65.4026 60.113 65.5128C58.8612 66.1447 57.0438 66.6583 55.3569 66.3757C55.2312 66.4741 55.4701 66.5862 55.6768 66.6404Z" fill="white"/>
<path d="M48.212 68.8643C48.1966 68.8615 48.1812 68.8593 48.1658 68.8566C48.2306 68.8164 48.2916 68.7705 48.3481 68.7192L48.212 68.8643Z" fill="white"/>
<path d="M38.1138 70.1109C38.8183 70.1672 39.5265 70.2092 40.2384 70.2367C40.7798 70.2659 41.3224 70.2622 41.8632 70.2256C43.0518 70.1251 44.07 69.7521 45.2039 69.5479C46.243 69.3612 47.5058 69.2712 48.1657 68.8566C46.4604 68.5614 44.6935 69.1623 42.935 69.3859C41.5127 69.5608 40.0708 69.4896 38.6726 69.1754C38.4779 69.4816 38.2916 69.7935 38.1138 70.1109Z" fill="white"/>
<path d="M46.6367 99.088C46.8051 99.1801 46.9755 99.2682 47.1459 99.3524C47.2066 99.3818 47.2693 99.4112 47.33 99.4425C47.3809 99.466 47.4319 99.4914 47.4828 99.515C47.4985 99.5228 47.5122 99.5287 47.5259 99.5365C47.569 99.5561 47.6101 99.5757 47.6532 99.5953C47.7002 99.6168 47.7472 99.6383 47.7922 99.6599C47.8451 99.6834 47.896 99.7069 47.9489 99.7284C48.1448 99.8166 48.3426 99.9008 48.5404 99.9811C49.2493 100.272 49.9737 100.523 50.7104 100.733C50.7437 100.743 50.7789 100.753 50.8142 100.763C51.1295 100.851 51.4468 100.931 51.766 101.003C52.3242 101.133 52.8876 101.238 53.4562 101.321H53.4601C53.5287 101.33 53.5953 101.34 53.6638 101.35C53.6697 101.35 53.6756 101.352 53.6834 101.352C53.6834 101.354 53.6834 101.354 53.6853 101.352C53.7598 101.362 53.8361 101.372 53.9106 101.381C53.9157 101.383 53.9209 101.384 53.9262 101.383C53.9967 101.393 54.0692 101.401 54.1397 101.409C54.2161 101.417 54.2925 101.424 54.3689 101.432C54.4276 101.438 54.4864 101.444 54.5451 101.45C54.5502 101.452 54.5555 101.452 54.5608 101.452C54.6137 101.456 54.6666 101.462 54.7194 101.466H54.7273C54.7723 101.47 54.8193 101.473 54.8644 101.477C55.4108 101.52 55.9592 101.54 56.5154 101.54C57.1166 101.54 57.714 101.517 58.3035 101.466H58.3094C58.4367 101.454 58.562 101.442 58.6873 101.43C58.7206 101.426 58.752 101.424 58.7853 101.421C58.7911 101.421 58.799 101.419 58.8049 101.419C58.8146 101.417 58.8244 101.417 58.8362 101.415C58.8415 101.415 58.8468 101.414 58.8519 101.413C58.8949 101.409 58.938 101.403 58.9831 101.399L59.13 101.381C59.1789 101.376 59.2279 101.368 59.2768 101.362C59.2886 101.36 59.2984 101.36 59.3101 101.358C59.3454 101.354 59.3806 101.348 59.4159 101.342C59.4335 101.34 59.4512 101.338 59.4668 101.336C59.5021 101.33 59.5354 101.327 59.5706 101.321H59.5726C60.6473 101.166 61.7081 100.927 62.7453 100.606C62.8002 100.588 62.855 100.573 62.9099 100.555C62.657 99.3756 62.1364 98.2702 61.3883 97.3241C60.6401 96.378 59.6845 95.6165 58.5953 95.0986C58.8647 94.8419 59.051 94.5103 59.13 94.1467C59.1808 93.9123 59.1848 93.6702 59.1418 93.4343C59.0988 93.1983 59.0096 92.9732 58.8793 92.7719C58.6251 92.3816 58.2264 92.1083 57.7708 92.012L54.8683 91.4048C54.401 91.3138 53.9167 91.4108 53.5206 91.6748C53.1246 91.9389 52.8487 92.3486 52.7531 92.815C52.7235 92.9579 52.7104 93.1038 52.7139 93.2497C49.9192 95.1103 47.9078 97.0394 46.6367 99.088Z" fill="#063940"/>
<path d="M55.2071 90.2585C58.5468 90.2585 61.2541 87.5511 61.2541 84.2115C61.2541 80.8719 58.5468 78.1646 55.2071 78.1646C51.8675 78.1646 49.1602 80.8719 49.1602 84.2115C49.1602 87.5511 51.8675 90.2585 55.2071 90.2585Z" fill="#FFB8B8"/>
<path d="M51.4375 89.4248C50.7927 88.9843 50.1342 88.1379 49.6946 87.5035C49.1121 86.6696 48.7112 85.7226 48.5181 84.7239C48.3249 83.7252 48.3438 82.6971 48.5734 81.7061C48.6466 81.3099 48.8266 80.9412 49.0939 80.6397C49.3787 80.3579 49.8439 80.2243 50.1915 80.4236C50.0967 80.1695 50.0549 79.8988 50.0687 79.6279C50.0826 79.3571 50.1518 79.092 50.2721 78.849C50.5164 78.3638 50.8704 77.9421 51.3061 77.6175C52.1392 76.976 53.1305 76.5719 54.1747 76.4483C55.2189 76.3247 56.2772 76.4861 57.2371 76.9154C57.6148 77.0904 56.9944 75.7386 57.3898 75.869C57.7825 76.021 58.2191 76.0134 58.6063 75.8476C58.9781 75.6604 60.2107 76.7725 60.068 76.3814C60.3502 76.5095 60.5954 76.707 60.7807 76.9554C60.9661 77.2038 61.0855 77.495 61.128 77.802C61.1704 78.109 61.1345 78.4217 61.0235 78.7111C60.9126 79.0004 60.7302 79.257 60.4934 79.4569C60.1813 79.7204 59.7916 79.872 59.4499 80.0957C58.8512 80.5169 58.4275 81.1427 58.2586 81.855C58.0898 82.5673 58.1876 83.3167 58.5336 83.9619C58.174 83.7309 57.7796 83.5594 57.3654 83.4542C57.1576 83.4035 56.9407 83.4031 56.7327 83.4532C56.5248 83.5032 56.3318 83.6021 56.1698 83.7418C56.0344 83.8967 55.9321 84.0776 55.8693 84.2735C55.8064 84.4694 55.7842 84.6761 55.8041 84.8808C55.8176 85.2912 55.9153 85.6954 55.9262 86.1059C55.9584 87.3102 56.6034 89.5998 55.6696 90.24C54.9328 90.7451 52.318 90.0262 51.4375 89.4248Z" fill="#2F2E41"/>
<path d="M59.3648 53.9448C59.2375 53.9445 59.1114 53.919 58.994 53.8698C58.8186 53.7994 58.6687 53.6777 58.5637 53.5206C58.4587 53.3635 58.4037 53.1784 58.4057 52.9894V52.0323C58.4054 51.8315 58.3256 51.639 58.1836 51.4971C58.0417 51.3551 57.8492 51.2752 57.6485 51.275C57.3957 51.2747 57.1535 51.1742 56.9748 50.9955C56.7961 50.8168 56.6956 50.5746 56.6953 50.3219V37.2088C56.6956 36.9561 56.7961 36.7138 56.9748 36.5351C57.1534 36.3564 57.3957 36.2559 57.6484 36.2556H101.093C101.346 36.2559 101.588 36.3564 101.767 36.5351C101.945 36.7138 102.046 36.9561 102.046 37.2088V50.3219C102.046 50.5746 101.945 50.8168 101.767 50.9955C101.588 51.1742 101.346 51.2747 101.093 51.275H62.7348C62.6353 51.2747 62.5368 51.2942 62.4448 51.3323C62.3529 51.3703 62.2694 51.4262 62.1993 51.4968L60.0328 53.6633C59.9456 53.7521 59.8417 53.8227 59.727 53.871C59.6124 53.9194 59.4893 53.9444 59.3648 53.9448Z" fill="white"/>
<path d="M59.3646 54.1406C59.2115 54.1404 59.0599 54.1098 58.9187 54.0507C58.7074 53.9657 58.5267 53.819 58.4002 53.6296C58.2736 53.4402 58.2072 53.2171 58.2096 52.9894V52.0323C58.2095 51.8835 58.1503 51.7407 58.0451 51.6355C57.9398 51.5302 57.7971 51.471 57.6483 51.4708C57.3436 51.4704 57.0516 51.3492 56.8362 51.1338C56.6208 50.9184 56.4996 50.6263 56.4993 50.3217V37.2087C56.4996 36.9041 56.6207 36.612 56.8361 36.3966C57.0515 36.1812 57.3436 36.06 57.6482 36.0597H101.093C101.397 36.06 101.689 36.1812 101.905 36.3966C102.12 36.612 102.241 36.9041 102.242 37.2087V50.3217C102.241 50.6263 102.12 50.9184 101.905 51.1338C101.689 51.3492 101.397 51.4704 101.093 51.4708H62.7346C62.6608 51.4706 62.5877 51.485 62.5196 51.5132C62.4514 51.5415 62.3896 51.5829 62.3375 51.6353L60.1711 53.8017C60.0657 53.9087 59.9402 53.9938 59.8018 54.0519C59.6634 54.1101 59.5148 54.1402 59.3646 54.1406ZM57.6482 36.4514C57.4474 36.4516 57.2549 36.5315 57.113 36.6735C56.971 36.8154 56.8912 37.0079 56.891 37.2087V50.3217C56.8912 50.5225 56.971 50.715 57.113 50.857C57.255 50.999 57.4475 51.0789 57.6483 51.0791C57.901 51.0794 58.1432 51.1799 58.3219 51.3586C58.5005 51.5374 58.601 51.7796 58.6013 52.0323V52.9894C58.6013 53.1391 58.6458 53.2855 58.729 53.41C58.8122 53.5345 58.9305 53.6316 59.0688 53.6889C59.2072 53.7462 59.3594 53.7611 59.5063 53.7319C59.6532 53.7027 59.7881 53.6306 59.894 53.5247L62.0606 51.3583C62.1489 51.2695 62.2539 51.1991 62.3696 51.1512C62.4853 51.1032 62.6094 51.0787 62.7346 51.0791H101.093C101.294 51.0789 101.486 50.999 101.628 50.857C101.77 50.715 101.85 50.5225 101.85 50.3217V37.2087C101.85 37.0079 101.77 36.8154 101.628 36.6734C101.486 36.5315 101.294 36.4516 101.093 36.4514L57.6482 36.4514Z" fill="#3F3D56"/>
<path d="M97.3595 42.1923H62.1305C61.9959 42.1923 61.8668 42.1388 61.7717 42.0437C61.6765 41.9485 61.623 41.8195 61.623 41.6849C61.623 41.5503 61.6765 41.4213 61.7717 41.3261C61.8668 41.2309 61.9959 41.1775 62.1305 41.1775H97.3595C97.4941 41.1775 97.6231 41.2309 97.7183 41.3261C97.8135 41.4213 97.8669 41.5503 97.8669 41.6849C97.8669 41.8195 97.8135 41.9485 97.7183 42.0437C97.6231 42.1388 97.4941 42.1923 97.3595 42.1923Z" fill="#063940"/>
<path d="M97.2948 44.3481H62.1305C61.9959 44.3481 61.8668 44.2946 61.7717 44.1995C61.6765 44.1043 61.623 43.9752 61.623 43.8407C61.623 43.7061 61.6765 43.577 61.7717 43.4819C61.8668 43.3867 61.9959 43.3333 62.1305 43.3333H97.2948C97.4293 43.3333 97.5584 43.3867 97.6536 43.4819C97.7487 43.577 97.8022 43.7061 97.8022 43.8407C97.8022 43.9752 97.7487 44.1043 97.6536 44.1995C97.5584 44.2946 97.4293 44.3481 97.2948 44.3481Z" fill="#E6E6E6"/>
<path d="M97.2598 46.5036H62.1305C61.9959 46.5036 61.8668 46.4501 61.7717 46.355C61.6765 46.2598 61.623 46.1308 61.623 45.9962C61.623 45.8616 61.6765 45.7325 61.7717 45.6374C61.8668 45.5422 61.9959 45.4888 62.1305 45.4888H97.2598C97.3943 45.4888 97.5234 45.5422 97.6186 45.6374C97.7137 45.7325 97.7672 45.8616 97.7672 45.9962C97.7672 46.1308 97.7137 46.2598 97.6186 46.355C97.5234 46.4501 97.3943 46.5036 97.2598 46.5036Z" fill="#E6E6E6"/>
<path d="M152.838 34.2207C152.838 34.6966 152.823 35.1725 152.789 35.6445C152.754 36.2085 152.693 36.7687 152.611 37.3249C152.335 39.1977 151.806 41.0245 151.04 42.7558C151.001 42.8419 150.962 42.9281 150.923 43.0143L150.864 43.1436C150.845 43.1866 150.823 43.2297 150.803 43.2709C150.776 43.3277 150.751 43.3825 150.723 43.4373C150.69 43.5059 150.657 43.5744 150.621 43.643C150.617 43.6508 150.613 43.6606 150.608 43.6704C150.578 43.7291 150.551 43.7859 150.519 43.8447C150.514 43.8575 150.507 43.8699 150.5 43.8819C150.467 43.9485 150.431 44.017 150.396 44.0836C150.357 44.1541 150.32 44.2266 150.281 44.2971C150.187 44.4714 150.089 44.6438 149.989 44.8161C149.959 44.867 149.93 44.9179 149.899 44.9689C149.871 45.0159 149.844 45.0629 149.814 45.1099C149.795 45.1412 149.775 45.1745 149.756 45.2058C149.724 45.2587 149.693 45.3096 149.66 45.3625C149.587 45.4781 149.513 45.5936 149.44 45.7092H149.438C149.405 45.7621 149.37 45.8149 149.335 45.8659V45.8678C149.231 46.0245 149.123 46.1812 149.015 46.3359C149.015 46.3359 149.015 46.3359 149.015 46.336C149.014 46.3361 149.014 46.3363 149.014 46.3365C149.014 46.3366 149.014 46.3369 149.014 46.3371C149.013 46.3373 149.013 46.3376 149.013 46.3378C148.927 46.4632 148.837 46.5846 148.749 46.706V46.708C148.69 46.7844 148.633 46.8627 148.575 46.9391C148.528 47.0018 148.479 47.0664 148.43 47.1291C148.42 47.1428 148.408 47.1545 148.398 47.1682V47.1702C148.385 47.1878 148.371 47.2035 148.357 47.2211C148.15 47.4875 147.936 47.748 147.715 48.0026L147.68 48.0437C147.668 48.0574 147.654 48.0711 147.642 48.0868C147.623 48.1083 147.605 48.1299 147.586 48.1514C147.568 48.173 147.548 48.1945 147.529 48.216C146.379 49.5117 145.074 50.6621 143.645 51.6414C143.455 51.7727 143.261 51.9 143.067 52.0234C143.018 52.0547 142.969 52.086 142.921 52.1154C142.907 52.1252 142.891 52.135 142.877 52.1448C142.85 52.1604 142.825 52.1761 142.797 52.1937C142.772 52.2094 142.746 52.2251 142.719 52.2407C142.615 52.3054 142.509 52.368 142.403 52.4307C142.378 52.4464 142.351 52.4621 142.323 52.4777C142.298 52.4914 142.27 52.5071 142.243 52.5228C142.243 52.5247 142.243 52.5247 142.241 52.5247H142.239V52.5267H142.237C142.106 52.6031 141.973 52.6775 141.837 52.75C141.765 52.7891 141.691 52.8303 141.616 52.8675C141.448 52.9595 141.277 53.0476 141.107 53.1319C141.046 53.1612 140.984 53.1906 140.923 53.222C140.872 53.2455 140.821 53.2709 140.77 53.2944C140.754 53.3022 140.741 53.3081 140.727 53.316C140.684 53.3355 140.643 53.3551 140.6 53.3747C140.553 53.3963 140.506 53.4178 140.461 53.4393C140.408 53.4628 140.357 53.4864 140.304 53.5079C140.108 53.596 139.91 53.6802 139.713 53.7605C139.004 54.0511 138.279 54.3022 137.543 54.5126C137.509 54.5224 137.474 54.5322 137.439 54.542C137.123 54.6301 136.806 54.7104 136.487 54.7829C135.929 54.9121 135.365 55.0179 134.797 55.1002H134.793C134.724 55.1099 134.658 55.1197 134.589 55.1295C134.583 55.1295 134.577 55.1315 134.57 55.1315C134.57 55.1334 134.569 55.1334 134.568 55.1315C134.493 55.1413 134.417 55.1511 134.342 55.1609C134.337 55.1624 134.332 55.163 134.327 55.1628C134.256 55.1726 134.184 55.1804 134.113 55.1883C134.037 55.1961 133.96 55.2039 133.884 55.2118C133.825 55.2177 133.767 55.2235 133.708 55.2294C133.703 55.2311 133.697 55.2318 133.692 55.2314C133.639 55.2353 133.586 55.2412 133.533 55.2451H133.526C133.481 55.249 133.434 55.2529 133.389 55.2568C132.842 55.2999 132.294 55.3195 131.738 55.3195C131.136 55.3195 130.539 55.296 129.949 55.2451H129.944C129.816 55.2333 129.691 55.2216 129.566 55.2098C129.532 55.2059 129.501 55.2039 129.468 55.2C129.462 55.2 129.454 55.1981 129.448 55.1981C129.438 55.1961 129.428 55.1961 129.417 55.1942C129.411 55.1944 129.406 55.1937 129.401 55.1922C129.358 55.1883 129.315 55.1824 129.27 55.1785L129.123 55.1609C129.074 55.155 129.025 55.1471 128.976 55.1413C128.964 55.1393 128.955 55.1393 128.943 55.1374C128.908 55.1334 128.872 55.1276 128.837 55.1217C128.819 55.1197 128.802 55.1178 128.786 55.1158C128.751 55.1099 128.718 55.106 128.682 55.1002H128.68C127.606 54.9454 126.545 54.7064 125.508 54.3853C125.453 54.3677 125.398 54.352 125.343 54.3344C125.341 54.3344 125.339 54.3324 125.337 54.3324C125.321 54.3266 125.304 54.3226 125.288 54.3168C125.141 54.2698 124.996 54.2208 124.851 54.1699C124.652 54.1033 124.454 54.0308 124.256 53.9564C124.203 53.9349 124.15 53.9153 124.097 53.8937C123.99 53.8526 123.884 53.8095 123.778 53.7664C123.598 53.694 123.418 53.6176 123.24 53.5392C123.073 53.4648 122.909 53.3904 122.744 53.312C122.74 53.3101 122.734 53.3101 122.73 53.3062C122.693 53.2886 122.656 53.2709 122.621 53.2533H122.619C121.717 52.8204 120.847 52.3237 120.016 51.7668C119.75 51.5886 119.487 51.4045 119.229 51.2145C119.021 51.0598 118.817 50.9031 118.614 50.7425C117.609 49.9432 116.679 49.0543 115.835 48.0868V48.0848C115.774 48.0182 115.717 47.9497 115.658 47.8811C115.648 47.8714 115.641 47.8616 115.633 47.8537C115.596 47.8087 115.56 47.7656 115.523 47.7225V47.7206C115.474 47.6638 115.425 47.605 115.378 47.5462C115.366 47.5326 115.357 47.5208 115.347 47.509V47.5071C115.308 47.4601 115.271 47.4131 115.231 47.3641C115.212 47.3406 115.194 47.3171 115.175 47.2936V47.2916C115.059 47.1467 114.947 47.0018 114.836 46.8529C114.806 46.8138 114.777 46.7726 114.746 46.7315C114.605 46.5415 114.468 46.3476 114.334 46.1538V46.1518C114.283 46.0793 114.234 46.0049 114.184 45.9325C114.135 45.858 114.086 45.7836 114.037 45.7092C113.988 45.6309 113.937 45.5545 113.888 45.4761L113.882 45.4644C113.833 45.39 113.784 45.3116 113.737 45.2352C113.7 45.1726 113.663 45.1118 113.625 45.0511C113.602 45.01 113.576 44.9689 113.553 44.9258C113.544 44.9125 113.535 44.8988 113.527 44.8847C113.473 44.7887 113.418 44.6927 113.363 44.5968C113.298 44.4851 113.236 44.3715 113.173 44.2579C113.149 44.2109 113.124 44.1639 113.099 44.1169C113.089 44.1013 113.081 44.0856 113.073 44.0699C113.044 44.0151 113.014 43.9583 112.987 43.9015C112.958 43.8467 112.928 43.7899 112.899 43.7331C112.871 43.6782 112.842 43.6214 112.815 43.5646C112.793 43.5216 112.773 43.4785 112.752 43.4354C112.75 43.4319 112.748 43.4286 112.746 43.4256C112.736 43.404 112.726 43.3845 112.719 43.3649C112.716 43.3619 112.714 43.3586 112.713 43.3551C112.691 43.312 112.672 43.267 112.65 43.2239C112.623 43.1671 112.597 43.1083 112.57 43.0515C112.552 43.0123 112.533 42.9712 112.515 42.9301C112.489 42.8733 112.462 42.8165 112.439 42.7577C112.411 42.699 112.386 42.6402 112.36 42.5795C112.353 42.5649 112.346 42.5498 112.341 42.5345C112.327 42.5071 112.317 42.4796 112.305 42.4522C112.274 42.3798 112.243 42.3053 112.213 42.2329C112.178 42.1506 112.145 42.0664 112.113 41.9841C112.082 41.9078 112.053 41.8294 112.023 41.7511L112.012 41.7237C111.555 40.5217 111.209 39.2808 110.977 38.0162V38.0143C110.847 37.2923 110.753 36.5641 110.697 35.8325C110.695 35.7914 110.692 35.7522 110.69 35.713C110.654 35.2175 110.639 34.7201 110.639 34.2207C110.639 33.9994 110.643 33.78 110.648 33.5607C110.785 28.9732 112.421 24.5568 115.306 20.9871C115.368 20.9088 115.431 20.8304 115.496 20.7521C115.56 20.6738 115.627 20.5974 115.692 20.521C117.839 18.0067 120.546 16.0321 123.596 14.7563C126.647 13.4805 129.954 12.9392 133.252 13.1761C136.549 13.413 139.745 14.4214 142.582 16.12C145.418 17.8187 147.816 20.1601 149.581 22.9554C149.677 23.1082 149.773 23.2629 149.865 23.4176C149.959 23.5743 150.049 23.731 150.14 23.8896C151.914 27.0434 152.843 30.602 152.838 34.2207Z" fill="#F2F2F2"/>
<path d="M132.576 20.4199C129.106 21.3102 125.551 21.8234 121.971 21.9505C121.43 21.98 120.887 21.9763 120.346 21.9395C119.158 21.8395 118.139 21.4659 117.006 21.2618C116.46 21.1639 115.853 21.0924 115.304 20.9866C115.431 20.8293 115.56 20.6739 115.692 20.5204C116.875 20.6204 118.077 20.9477 119.274 21.0997C121.31 21.3586 123.591 21.0697 125.134 20.3573C125.883 20.0116 126.457 19.5802 127.203 19.2329C127.304 19.1808 127.414 19.1471 127.527 19.1334C127.742 19.127 127.955 19.1821 128.14 19.2923C129.392 19.9243 131.209 20.4378 132.896 20.1553C133.022 20.2536 132.783 20.3657 132.576 20.4199Z" fill="white"/>
<path d="M140.041 22.6437C140.056 22.6409 140.071 22.6387 140.087 22.636C140.022 22.5958 139.961 22.5499 139.905 22.4987L140.041 22.6437Z" fill="white"/>
<path d="M150.139 23.8904C149.434 23.9467 148.726 23.9886 148.014 24.0161C147.473 24.0453 146.93 24.0416 146.389 24.0051C145.201 23.9046 144.183 23.5315 143.049 23.3274C142.01 23.1406 140.747 23.0506 140.087 22.636C141.792 22.3408 143.559 22.9417 145.318 23.1653C146.74 23.3402 148.182 23.269 149.58 22.9548C149.775 23.2611 149.961 23.5729 150.139 23.8904Z" fill="white"/>
<path d="M129.359 43.4533C132.859 43.4533 135.696 40.5528 135.696 36.9747C135.696 33.3967 132.859 30.4961 129.359 30.4961C125.859 30.4961 123.021 33.3967 123.021 36.9747C123.021 40.5528 125.859 43.4533 129.359 43.4533Z" fill="#FFB6B6"/>
<path d="M141.616 52.8674C141.448 52.9595 141.277 53.0476 141.107 53.1318C141.046 53.1612 140.984 53.1906 140.923 53.2219C140.872 53.2454 140.821 53.2709 140.77 53.2944C140.754 53.3022 140.741 53.3081 140.727 53.3159C140.684 53.3355 140.643 53.3551 140.6 53.3747C140.553 53.3962 140.506 53.4178 140.461 53.4393C140.408 53.4628 140.357 53.4863 140.304 53.5079C140.108 53.596 139.91 53.6802 139.712 53.7605C139.004 54.0511 138.279 54.3022 137.542 54.5126C137.509 54.5224 137.474 54.5321 137.439 54.5419C137.123 54.6301 136.806 54.7104 136.487 54.7828C135.929 54.9121 135.365 55.0179 134.797 55.1001H134.793C134.724 55.1099 134.658 55.1197 134.589 55.1295C134.583 55.1295 134.577 55.1314 134.569 55.1314C134.569 55.1334 134.569 55.1334 134.568 55.1314C134.493 55.1412 134.417 55.151 134.342 55.1608C134.337 55.1623 134.332 55.163 134.327 55.1628C134.256 55.1726 134.184 55.1804 134.113 55.1882C134.037 55.1961 133.96 55.2039 133.884 55.2117C133.825 55.2176 133.767 55.2235 133.708 55.2294C133.703 55.2311 133.697 55.2318 133.692 55.2313C133.639 55.2352 133.586 55.2411 133.533 55.245H133.526C133.481 55.249 133.434 55.2529 133.389 55.2568C132.842 55.2999 132.294 55.3195 131.738 55.3195C131.136 55.3195 130.539 55.296 129.949 55.245H129.944C129.816 55.2333 129.691 55.2215 129.566 55.2098C129.532 55.2059 129.501 55.2039 129.468 55.2C129.462 55.2 129.454 55.198 129.448 55.198C129.438 55.1961 129.428 55.1961 129.417 55.1941C129.411 55.1943 129.406 55.1937 129.401 55.1922C129.358 55.1882 129.315 55.1824 129.27 55.1784L129.123 55.1608C129.074 55.1549 129.025 55.1471 128.976 55.1412C128.964 55.1393 128.954 55.1393 128.943 55.1373C128.907 55.1334 128.872 55.1275 128.837 55.1217C128.819 55.1197 128.802 55.1177 128.786 55.1158C128.751 55.1099 128.717 55.106 128.682 55.1001H128.68C127.606 54.9454 126.545 54.7064 125.508 54.3853C125.453 54.3676 125.398 54.352 125.343 54.3343C125.596 53.155 126.117 52.0496 126.865 51.1035C127.613 50.1574 128.568 49.396 129.658 48.878C129.388 48.6213 129.202 48.2898 129.123 47.9261C129.072 47.6918 129.068 47.4496 129.111 47.2137C129.154 46.9778 129.243 46.7526 129.374 46.5513C129.628 46.1611 130.026 45.8877 130.482 45.7914L133.385 45.1843C133.852 45.0932 134.336 45.1902 134.732 45.4543C135.128 45.7183 135.404 46.1281 135.5 46.5944C135.529 46.7373 135.543 46.8832 135.539 47.0292C138.334 48.8897 140.345 50.8188 141.616 52.8674Z" fill="#063940"/>
<path d="M146.317 34.165C145.24 32.9088 144.727 31.2421 143.866 29.8156C143.005 28.3891 141.506 27.1124 139.923 27.4443C138.832 27.6732 137.989 28.6362 137.562 29.7099C137.135 30.7835 137.055 31.9675 136.98 33.1275C137.006 30.7438 135.436 28.4329 133.272 27.6723C131.109 26.9117 128.52 27.7601 127.161 29.6751C126.568 29.1253 125.793 28.8122 124.985 28.7953C124.176 28.7783 123.389 29.0586 122.774 29.583C121.558 30.6698 121.289 32.7381 122.183 34.1243C123.077 35.5104 125.014 36.0268 126.435 35.258L126.937 35.7202C126.654 36.7092 127.203 37.8775 128.124 38.2499C128.872 38.5518 129.927 38.5016 130.207 39.286C130.403 39.8342 130.037 40.4192 129.649 40.8404C129.26 41.2616 128.799 41.6966 128.752 42.2795C128.681 43.1589 129.59 43.775 130.416 43.9605C132.408 44.4079 134.619 43.4854 135.767 41.7274C135.789 41.6935 135.813 41.6596 135.839 41.6256C136.483 40.8018 136.953 39.8553 137.219 38.844C137.485 37.8326 137.542 36.7777 137.386 35.7436C137.322 35.3372 137.387 35.035 137.667 34.9388C138.878 34.5229 142.27 35.3958 143.297 36.1848C144.324 36.9737 145.146 38.0178 146.135 38.8577C147.124 39.6975 148.384 40.3454 149.64 40.1167C150.645 39.9335 151.501 39.2034 152.077 38.3227C152.652 37.442 152.983 36.4155 153.28 35.3953C151.056 36.68 148.012 36.1422 146.317 34.165Z" fill="#2F2E41"/>
<path d="M16.2212 21.0988C16.2212 21.5747 16.2369 22.0507 16.2702 22.5226C16.3054 23.0867 16.3661 23.6468 16.4484 24.203C16.7248 26.0759 17.2532 27.9027 18.0191 29.6339C18.0583 29.7201 18.0974 29.8063 18.1366 29.8925L18.1954 30.0217C18.215 30.0648 18.2365 30.1079 18.2561 30.149C18.2835 30.2058 18.309 30.2607 18.3364 30.3155C18.3697 30.384 18.403 30.4526 18.4382 30.5211C18.4421 30.529 18.4461 30.5388 18.4519 30.5486C18.4813 30.6073 18.5087 30.6641 18.5401 30.7229C18.5458 30.7357 18.5524 30.7481 18.5597 30.7601C18.5929 30.8267 18.6282 30.8952 18.6635 30.9618C18.7026 31.0323 18.7398 31.1048 18.779 31.1753C18.873 31.3496 18.9709 31.5219 19.0708 31.6943C19.1002 31.7452 19.1296 31.7961 19.1609 31.847C19.1883 31.894 19.2157 31.941 19.2451 31.9881C19.2647 32.0194 19.2843 32.0527 19.3039 32.084C19.3352 32.1369 19.3665 32.1878 19.3998 32.2407C19.4723 32.3562 19.5467 32.4718 19.6192 32.5873H19.6212C19.6544 32.6402 19.6897 32.6931 19.725 32.744V32.746C19.8288 32.9027 19.9365 33.0593 20.0442 33.2141C20.0444 33.2141 20.0447 33.2141 20.0449 33.2142C20.0452 33.2143 20.0454 33.2144 20.0456 33.2146C20.0458 33.2148 20.0459 33.215 20.046 33.2153C20.0461 33.2155 20.0462 33.2158 20.0461 33.216C20.1323 33.3414 20.2224 33.4628 20.3105 33.5842V33.5862C20.3693 33.6626 20.4261 33.7409 20.4849 33.8173C20.5319 33.8799 20.5808 33.9446 20.6298 34.0072C20.6396 34.0209 20.6513 34.0327 20.6611 34.0464V34.0484C20.6748 34.066 20.6885 34.0817 20.7022 34.0993C20.9098 34.3656 21.124 34.6261 21.3446 34.8807L21.3799 34.9219C21.3916 34.9356 21.4053 34.9493 21.4171 34.965C21.4367 34.9865 21.4543 35.008 21.4739 35.0296C21.4915 35.0511 21.5111 35.0727 21.5307 35.0942C22.6809 36.3899 23.9852 37.5402 25.4144 38.5196C25.6044 38.6508 25.7982 38.7781 25.9921 38.9015C26.0411 38.9329 26.0901 38.9642 26.139 38.9936C26.1527 39.0034 26.1684 39.0132 26.1821 39.0229C26.2095 39.0386 26.235 39.0543 26.2624 39.0719C26.2879 39.0876 26.3133 39.1032 26.3407 39.1189C26.4445 39.1835 26.5503 39.2462 26.6561 39.3089C26.6815 39.3246 26.7089 39.3402 26.7364 39.3559C26.7618 39.3696 26.7892 39.3853 26.8167 39.4009C26.8167 39.4029 26.8167 39.4029 26.8186 39.4029H26.8206V39.4049H26.8225C26.9538 39.4812 27.0869 39.5557 27.2221 39.6281C27.2945 39.6673 27.369 39.7084 27.4434 39.7456C27.6118 39.8377 27.7822 39.9258 27.9526 40.01C28.0133 40.0394 28.076 40.0688 28.1367 40.1001C28.1876 40.1236 28.2385 40.1491 28.2894 40.1726C28.3051 40.1804 28.3188 40.1863 28.3325 40.1941C28.3756 40.2137 28.4167 40.2333 28.4598 40.2529C28.5068 40.2744 28.5538 40.296 28.5989 40.3175C28.6518 40.341 28.7027 40.3645 28.7556 40.3861C28.9514 40.4742 29.1492 40.5584 29.347 40.6387C30.0559 40.9293 30.7804 41.1804 31.517 41.3908C31.5503 41.4006 31.5856 41.4104 31.6208 41.4201C31.9362 41.5083 32.2535 41.5886 32.5727 41.661C33.1309 41.7903 33.6942 41.8961 34.2629 41.9783H34.2668C34.3353 41.9881 34.4019 41.9979 34.4705 42.0077C34.4763 42.0077 34.4822 42.0097 34.49 42.0097C34.49 42.0116 34.49 42.0116 34.492 42.0097C34.5664 42.0194 34.6428 42.0292 34.7172 42.039C34.7223 42.0405 34.7276 42.0412 34.7329 42.041C34.8034 42.0508 34.8759 42.0586 34.9464 42.0664C35.0228 42.0743 35.0991 42.0821 35.1755 42.0899C35.2343 42.0958 35.293 42.1017 35.3518 42.1076C35.3568 42.1093 35.3621 42.11 35.3675 42.1095C35.4203 42.1135 35.4732 42.1193 35.5261 42.1232H35.5339C35.579 42.1272 35.626 42.1311 35.671 42.135C36.2174 42.1781 36.7658 42.1977 37.322 42.1977C37.9233 42.1977 38.5206 42.1742 39.1101 42.1232H39.116C39.2433 42.1115 39.3687 42.0997 39.494 42.088C39.5273 42.0841 39.5586 42.0821 39.5919 42.0782C39.5978 42.0782 39.6056 42.0762 39.6115 42.0762C39.6213 42.0743 39.6311 42.0743 39.6428 42.0723C39.6481 42.0725 39.6534 42.0719 39.6585 42.0704C39.7016 42.0664 39.7447 42.0606 39.7897 42.0567L39.9366 42.039C39.9856 42.0332 40.0345 42.0253 40.0835 42.0194C40.0953 42.0175 40.105 42.0175 40.1168 42.0155C40.1521 42.0116 40.1873 42.0057 40.2226 41.9999C40.2402 41.9979 40.2578 41.996 40.2735 41.994C40.3087 41.9881 40.342 41.9842 40.3773 41.9783H40.3792C41.4539 41.8236 42.5148 41.5846 43.552 41.2635C43.6068 41.2458 43.6617 41.2302 43.7165 41.2126C43.7185 41.2126 43.7204 41.2106 43.7224 41.2106C43.7381 41.2047 43.7557 41.2008 43.7713 41.1949C43.9182 41.1479 44.0632 41.099 44.2081 41.048C44.4079 40.9815 44.6057 40.909 44.8035 40.8346C44.8564 40.813 44.9092 40.7934 44.9621 40.7719C45.0698 40.7308 45.1756 40.6877 45.2813 40.6446C45.4615 40.5721 45.6417 40.4957 45.8199 40.4174C45.9864 40.343 46.1509 40.2686 46.3154 40.1902C46.3193 40.1883 46.3252 40.1883 46.3291 40.1843C46.3664 40.1667 46.4036 40.1491 46.4388 40.1315H46.4408C47.3427 39.6986 48.2125 39.2019 49.0436 38.645C49.31 38.4667 49.5724 38.2827 49.8309 38.0927C50.0385 37.938 50.2422 37.7813 50.4459 37.6207C51.4507 36.8214 52.3809 35.9325 53.225 34.965V34.963C53.2857 34.8964 53.3425 34.8279 53.4013 34.7593C53.411 34.7495 53.4189 34.7397 53.4267 34.7319C53.4639 34.6869 53.4992 34.6438 53.5364 34.6007V34.5987C53.5854 34.5419 53.6343 34.4832 53.6813 34.4244C53.6931 34.4107 53.7029 34.399 53.7127 34.3872V34.3852C53.7518 34.3382 53.789 34.2912 53.8282 34.2423C53.8478 34.2188 53.8654 34.1953 53.885 34.1718V34.1698C54.0006 34.0249 54.1122 33.88 54.2238 33.7311C54.2532 33.6919 54.2826 33.6508 54.3139 33.6097C54.4549 33.4197 54.592 33.2258 54.7252 33.0319V33.03C54.7761 32.9575 54.8251 32.8831 54.876 32.8106C54.925 32.7362 54.9739 32.6618 55.0229 32.5874C55.0719 32.509 55.1228 32.4326 55.1717 32.3543L55.1776 32.3425C55.2266 32.2681 55.2755 32.1898 55.3225 32.1134C55.3598 32.0507 55.397 31.99 55.4342 31.9293C55.4577 31.8882 55.4831 31.847 55.5066 31.804C55.5158 31.7907 55.5243 31.777 55.5321 31.7628C55.5869 31.6669 55.6418 31.5709 55.6966 31.4749C55.7612 31.3633 55.8239 31.2497 55.8866 31.1361C55.9101 31.0891 55.9355 31.0421 55.961 30.9951C55.9708 30.9794 55.9786 30.9638 55.9865 30.9481C56.0158 30.8933 56.0452 30.8365 56.0726 30.7797C56.102 30.7248 56.1314 30.668 56.1608 30.6112C56.1882 30.5564 56.2176 30.4996 56.245 30.4428C56.2665 30.3997 56.2861 30.3566 56.3077 30.3135C56.3092 30.31 56.3112 30.3067 56.3135 30.3038C56.3233 30.2822 56.3331 30.2626 56.341 30.243C56.3433 30.2401 56.3453 30.2368 56.3468 30.2332C56.3684 30.1902 56.388 30.1451 56.4095 30.102C56.4369 30.0452 56.4624 29.9865 56.4898 29.9297C56.5074 29.8905 56.527 29.8494 56.5446 29.8083C56.5701 29.7515 56.5975 29.6947 56.621 29.6359C56.6484 29.5772 56.6739 29.5184 56.6994 29.4577C56.7067 29.443 56.7132 29.428 56.7189 29.4126C56.7327 29.3852 56.7425 29.3578 56.7542 29.3304C56.7855 29.2579 56.8169 29.1835 56.8463 29.111C56.8815 29.0288 56.9148 28.9446 56.9461 28.8623C56.9775 28.7859 57.0068 28.7076 57.0362 28.6292L57.048 28.6018C57.5043 27.3999 57.8504 26.159 58.0821 24.8944V24.8924C58.2127 24.1705 58.3062 23.4422 58.3621 22.7107C58.3641 22.6695 58.368 22.6304 58.37 22.5912C58.4052 22.0957 58.4209 21.5983 58.4209 21.0988C58.4209 20.8775 58.417 20.6582 58.4111 20.4388C58.2744 15.8513 56.6385 11.4349 53.7538 7.8653C53.6911 7.78696 53.6284 7.70862 53.5638 7.63028C53.4992 7.55194 53.4326 7.47556 53.368 7.39918C51.221 4.88489 48.5133 2.91025 45.4631 1.63444C42.413 0.358632 39.1058 -0.182647 35.808 0.0542387C32.5103 0.291124 29.3144 1.29954 26.4779 2.99821C23.6414 4.69687 21.2438 7.03825 19.4782 9.83358C19.3822 9.98634 19.2863 10.1411 19.1942 10.2958C19.1002 10.4525 19.0101 10.6092 18.92 10.7678C17.1458 13.9216 16.2161 17.4802 16.2212 21.0988Z" fill="#F2F2F2"/>
<path d="M36.4832 7.29809C39.9528 8.18838 43.5084 8.70156 47.0881 8.82871C47.6295 8.8582 48.1721 8.85451 48.7129 8.81766C49.9016 8.71769 50.9197 8.34411 52.0536 8.13996C52.5987 8.04209 53.2059 7.97053 53.7547 7.86477C53.6279 7.70745 53.4988 7.55206 53.3674 7.39859C52.1841 7.49857 50.9823 7.82584 49.7847 7.9779C47.749 8.23678 45.4681 7.94791 43.9248 7.23548C43.1761 6.88979 42.6026 6.45833 41.8565 6.11106C41.755 6.05896 41.6451 6.0253 41.5318 6.01162C41.3167 6.00516 41.1042 6.06029 40.9194 6.17052C39.6676 6.80244 37.8502 7.31598 36.1633 7.03343C36.0376 7.13182 36.2765 7.24389 36.4832 7.29809Z" fill="white"/>
<path d="M29.0189 9.52186C29.0035 9.51904 28.9881 9.51685 28.9727 9.51418C29.0375 9.47402 29.0985 9.42805 29.155 9.37683L29.0189 9.52186Z" fill="white"/>
<path d="M18.9204 10.7685C19.6249 10.8248 20.3332 10.8667 21.0451 10.8943C21.5864 10.9235 22.129 10.9198 22.6699 10.8832C23.8585 10.7827 24.8766 10.4097 26.0105 10.2055C27.0497 10.0187 28.3125 9.92877 28.9723 9.51415C27.267 9.21897 25.5001 9.81985 23.7417 10.0435C22.3193 10.2184 20.8774 10.1472 19.4792 9.833C19.2845 10.1392 19.0983 10.4511 18.9204 10.7685Z" fill="white"/>
<path d="M27.4434 39.7456C27.6118 39.8376 27.7822 39.9258 27.9526 40.01C28.0133 40.0394 28.076 40.0688 28.1367 40.1001C28.1876 40.1236 28.2385 40.149 28.2894 40.1726C28.3051 40.1804 28.3188 40.1863 28.3325 40.1941C28.3756 40.2137 28.4167 40.2333 28.4598 40.2528C28.5068 40.2744 28.5538 40.2959 28.5989 40.3175C28.6518 40.341 28.7027 40.3645 28.7556 40.386C28.9514 40.4742 29.1492 40.5584 29.347 40.6387C30.0559 40.9293 30.7804 41.1803 31.517 41.3907C31.5503 41.4005 31.5856 41.4103 31.6208 41.4201C31.9362 41.5082 32.2534 41.5885 32.5727 41.661C33.1308 41.7903 33.6942 41.896 34.2628 41.9783H34.2668C34.3353 41.9881 34.4019 41.9979 34.4704 42.0077C34.4763 42.0077 34.4822 42.0096 34.49 42.0096C34.49 42.0116 34.49 42.0116 34.492 42.0096C34.5664 42.0194 34.6428 42.0292 34.7172 42.039C34.7223 42.0405 34.7276 42.0412 34.7329 42.041C34.8034 42.0507 34.8759 42.0586 34.9464 42.0664C35.0227 42.0743 35.0991 42.0821 35.1755 42.0899C35.2343 42.0958 35.293 42.1017 35.3518 42.1075C35.3568 42.1093 35.3621 42.11 35.3674 42.1095C35.4203 42.1134 35.4732 42.1193 35.5261 42.1232H35.5339C35.579 42.1271 35.626 42.131 35.671 42.135C36.2174 42.1781 36.7658 42.1976 37.322 42.1976C37.9233 42.1976 38.5206 42.1741 39.1101 42.1232H39.116C39.2433 42.1115 39.3686 42.0997 39.494 42.088C39.5273 42.084 39.5586 42.0821 39.5919 42.0782C39.5978 42.0782 39.6056 42.0762 39.6115 42.0762C39.6213 42.0742 39.6311 42.0742 39.6428 42.0723C39.6481 42.0725 39.6534 42.0718 39.6585 42.0703C39.7016 42.0664 39.7447 42.0605 39.7897 42.0566L39.9366 42.039C39.9856 42.0331 40.0345 42.0253 40.0835 42.0194C40.0952 42.0175 40.105 42.0175 40.1168 42.0155C40.152 42.0116 40.1873 42.0057 40.2225 41.9998C40.2402 41.9979 40.2578 41.9959 40.2735 41.994C40.3087 41.9881 40.342 41.9842 40.3773 41.9783H40.3792C41.4539 41.8236 42.5148 41.5846 43.552 41.2634C43.6068 41.2458 43.6617 41.2301 43.7165 41.2125C43.4636 40.0332 42.943 38.9278 42.1949 37.9817C41.4468 37.0356 40.4912 36.2741 39.4019 35.7562C39.6713 35.4995 39.8576 35.1679 39.9366 34.8043C39.9874 34.5699 39.9915 34.3278 39.9485 34.0919C39.9054 33.8559 39.8162 33.6308 39.6859 33.4295C39.4318 33.0392 39.033 32.7659 38.5774 32.6696L35.6749 32.0624C35.2077 31.9713 34.7234 32.0684 34.3273 32.3324C33.9312 32.5965 33.6554 33.0062 33.5597 33.4726C33.5301 33.6155 33.517 33.7614 33.5206 33.9073C30.7258 35.7679 28.7144 37.697 27.4434 39.7456Z" fill="#063940"/>
<path d="M38.9257 30.1032C42.8276 30.1032 45.9906 26.9401 45.9906 23.0383C45.9906 19.1365 42.8276 15.9734 38.9257 15.9734C35.0239 15.9734 31.8608 19.1365 31.8608 23.0383C31.8608 26.9401 35.0239 30.1032 38.9257 30.1032Z" fill="#9E616A"/>
<path d="M37.9218 29.7257C36.1531 30.2033 34.2032 29.5683 32.8229 28.3636C31.4426 27.1589 30.5792 25.4519 30.0817 23.6887C29.7173 22.3973 29.5446 20.9639 30.1196 19.7515C30.6945 18.5392 32.242 17.7213 33.4359 18.3337C32.6994 17.4756 33.0673 16.0564 33.9275 15.3223C34.7877 14.5883 35.9688 14.3778 37.0937 14.2628C38.7263 14.0958 40.4127 14.0771 41.9662 14.6061C43.5197 15.135 44.9313 16.2913 45.4175 17.8587C45.9141 18.0899 46.4733 18.1499 47.0076 18.0293C47.5419 17.9087 48.0212 17.6142 48.3702 17.1921C48.4602 17.6769 48.388 18.1779 48.1646 18.6175C47.9412 19.0571 47.5791 19.4108 47.1345 19.624L49.5148 18.8522C49.9241 19.7187 49.2068 20.7912 48.2896 21.0686C47.3723 21.3461 46.3821 21.0428 45.5117 20.6419C44.6412 20.2411 43.7977 19.7342 42.8522 19.5779C41.9067 19.4215 40.7961 19.7253 40.3588 20.5781C40.1297 21.0247 40.1177 21.5478 39.9848 22.0317C39.8518 22.5157 39.5149 23.0175 39.0145 23.0572C38.6984 23.0822 38.3888 22.9138 38.0736 22.9482C37.8801 22.9863 37.702 23.08 37.5609 23.2178C37.4199 23.3556 37.3221 23.5315 37.2795 23.7241C37.2011 24.1104 37.2001 24.5085 37.2767 24.8952L37.8814 29.5169L37.9218 29.7257Z" fill="#2F2E41"/>
</svg>
